<mxfile host="app.diagrams.net" agent="Mozilla/5.0 (Windows NT 10.0; Win64; x64) AppleWebKit/537.36 (KHTML, like Gecko) Chrome/130.0.0.0 Safari/537.36" version="24.8.4" pages="2">
  <diagram name="Page-1" id="oDOsjIZ9o7onu2PiIAry">
    <mxGraphModel dx="1418" dy="839" grid="1" gridSize="10" guides="1" tooltips="1" connect="1" arrows="1" fold="1" page="1" pageScale="1" pageWidth="850" pageHeight="1100" math="0" shadow="0">
      <root>
        <mxCell id="0" />
        <mxCell id="1" parent="0" />
        <mxCell id="NKb3vlKUD4mftSYrwLPT-1" value="EDW (in4mp)&lt;div&gt;&lt;br&gt;&lt;/div&gt;&lt;div&gt;PATSPECIFIC schema&lt;/div&gt;&lt;div&gt;with OMOP tables&lt;/div&gt;" style="shape=cylinder3;whiteSpace=wrap;html=1;boundedLbl=1;backgroundOutline=1;size=15;" parent="1" vertex="1">
          <mxGeometry x="460" y="280" width="170" height="150" as="geometry" />
        </mxCell>
        <mxCell id="NKb3vlKUD4mftSYrwLPT-2" value="Application Server TBD&lt;div&gt;&lt;br&gt;&lt;/div&gt;&lt;div&gt;Hosting Apps:&lt;/div&gt;&lt;div&gt;&lt;br&gt;&lt;/div&gt;&lt;div&gt;PSKB Timeline&lt;/div&gt;&lt;div&gt;PSKB Tuple Editor&lt;/div&gt;" style="shape=cube;whiteSpace=wrap;html=1;boundedLbl=1;backgroundOutline=1;darkOpacity=0.05;darkOpacity2=0.1;" parent="1" vertex="1">
          <mxGeometry x="420" y="25" width="210" height="180" as="geometry" />
        </mxCell>
        <mxCell id="NKb3vlKUD4mftSYrwLPT-3" style="edgeStyle=orthogonalEdgeStyle;rounded=0;orthogonalLoop=1;jettySize=auto;html=1;exitX=0.51;exitY=1;exitDx=0;exitDy=0;exitPerimeter=0;entryX=0.5;entryY=0;entryDx=0;entryDy=0;entryPerimeter=0;startArrow=classic;startFill=1;strokeWidth=2;" parent="1" source="NKb3vlKUD4mftSYrwLPT-2" target="NKb3vlKUD4mftSYrwLPT-1" edge="1">
          <mxGeometry relative="1" as="geometry" />
        </mxCell>
        <mxCell id="DRt2WUyzL2teUe1RJwLH-1" style="edgeStyle=orthogonalEdgeStyle;rounded=0;orthogonalLoop=1;jettySize=auto;html=1;exitX=0;exitY=0;exitDx=100;exitDy=160;exitPerimeter=0;entryX=0.5;entryY=0;entryDx=0;entryDy=0;startArrow=classic;startFill=1;strokeWidth=2;" parent="1" source="NKb3vlKUD4mftSYrwLPT-5" target="NKb3vlKUD4mftSYrwLPT-6" edge="1">
          <mxGeometry relative="1" as="geometry" />
        </mxCell>
        <mxCell id="NKb3vlKUD4mftSYrwLPT-5" value="NLP Processing Server&lt;div&gt;&lt;br&gt;&lt;/div&gt;&lt;div&gt;Relation Extraction&lt;/div&gt;&lt;div&gt;Note Summarization&lt;/div&gt;" style="shape=cube;whiteSpace=wrap;html=1;boundedLbl=1;backgroundOutline=1;darkOpacity=0.05;darkOpacity2=0.1;" parent="1" vertex="1">
          <mxGeometry x="460" y="530" width="180" height="160" as="geometry" />
        </mxCell>
        <mxCell id="NKb3vlKUD4mftSYrwLPT-6" value="LLM Processor&lt;div&gt;&lt;br&gt;&lt;/div&gt;&lt;div&gt;External or UAB RC-hosted&lt;br&gt;&lt;div&gt;&lt;br&gt;&lt;/div&gt;&lt;div&gt;Chat-GPT&lt;/div&gt;&lt;div&gt;LLama (sp?)&lt;/div&gt;&lt;div&gt;Others?&lt;/div&gt;&lt;/div&gt;" style="rounded=0;whiteSpace=wrap;html=1;" parent="1" vertex="1">
          <mxGeometry x="445" y="800" width="210" height="150" as="geometry" />
        </mxCell>
        <mxCell id="NKb3vlKUD4mftSYrwLPT-7" style="edgeStyle=orthogonalEdgeStyle;rounded=0;orthogonalLoop=1;jettySize=auto;html=1;exitX=0.5;exitY=1;exitDx=0;exitDy=0;exitPerimeter=0;entryX=0;entryY=0;entryDx=80;entryDy=0;entryPerimeter=0;startArrow=classic;startFill=1;strokeWidth=2;" parent="1" source="NKb3vlKUD4mftSYrwLPT-1" target="NKb3vlKUD4mftSYrwLPT-5" edge="1">
          <mxGeometry relative="1" as="geometry" />
        </mxCell>
        <mxCell id="DRt2WUyzL2teUe1RJwLH-2" value="User" style="html=1;whiteSpace=wrap;strokeColor=none;fillColor=#0079D6;labelPosition=center;verticalLabelPosition=middle;verticalAlign=top;align=center;fontSize=12;outlineConnect=0;spacingTop=-6;fontColor=#FFFFFF;sketch=0;shape=mxgraph.sitemap.user;" parent="1" vertex="1">
          <mxGeometry x="70" y="70" width="120" height="70" as="geometry" />
        </mxCell>
        <mxCell id="DRt2WUyzL2teUe1RJwLH-3" style="edgeStyle=orthogonalEdgeStyle;rounded=0;orthogonalLoop=1;jettySize=auto;html=1;exitX=1;exitY=0.5;exitDx=0;exitDy=0;exitPerimeter=0;entryX=0;entryY=0;entryDx=0;entryDy=80;entryPerimeter=0;startArrow=classic;startFill=1;strokeWidth=2;" parent="1" source="DRt2WUyzL2teUe1RJwLH-2" target="NKb3vlKUD4mftSYrwLPT-2" edge="1">
          <mxGeometry relative="1" as="geometry" />
        </mxCell>
      </root>
    </mxGraphModel>
  </diagram>
  <diagram id="btvcLaZ-0TU4FYoC4Vuf" name="Page-2">
    <mxGraphModel dx="2268" dy="839" grid="1" gridSize="10" guides="1" tooltips="1" connect="1" arrows="1" fold="1" page="1" pageScale="1" pageWidth="850" pageHeight="1100" math="0" shadow="0">
      <root>
        <mxCell id="0" />
        <mxCell id="1" parent="0" />
        <mxCell id="-qgodvQOzTYyHsjL0HaB-18" style="edgeStyle=orthogonalEdgeStyle;rounded=0;orthogonalLoop=1;jettySize=auto;html=1;exitX=0.5;exitY=1;exitDx=0;exitDy=0;entryX=0.5;entryY=0;entryDx=0;entryDy=0;" edge="1" parent="1" source="-qgodvQOzTYyHsjL0HaB-2" target="-qgodvQOzTYyHsjL0HaB-3">
          <mxGeometry relative="1" as="geometry" />
        </mxCell>
        <mxCell id="-qgodvQOzTYyHsjL0HaB-2" value="Load of Patients into&amp;nbsp;&lt;div&gt;PATSPECIFIC schema&amp;nbsp;&lt;/div&gt;&lt;div&gt;OMOP tables&lt;/div&gt;" style="shape=process;whiteSpace=wrap;html=1;backgroundOutline=1;" vertex="1" parent="1">
          <mxGeometry x="532" y="76" width="240" height="100" as="geometry" />
        </mxCell>
        <mxCell id="-qgodvQOzTYyHsjL0HaB-19" style="edgeStyle=orthogonalEdgeStyle;rounded=0;orthogonalLoop=1;jettySize=auto;html=1;exitX=0.5;exitY=1;exitDx=0;exitDy=0;entryX=0.5;entryY=0;entryDx=0;entryDy=0;" edge="1" parent="1" source="-qgodvQOzTYyHsjL0HaB-3" target="-qgodvQOzTYyHsjL0HaB-6">
          <mxGeometry relative="1" as="geometry" />
        </mxCell>
        <mxCell id="-qgodvQOzTYyHsjL0HaB-3" value="Pipeline Processing of Notes&lt;div&gt;&lt;br&gt;&lt;div&gt;- Relation Extraction&lt;/div&gt;&lt;/div&gt;&lt;div&gt;- Summarization&lt;/div&gt;" style="shape=process;whiteSpace=wrap;html=1;backgroundOutline=1;" vertex="1" parent="1">
          <mxGeometry x="532" y="226" width="240" height="90" as="geometry" />
        </mxCell>
        <mxCell id="-qgodvQOzTYyHsjL0HaB-6" value="Review of Tuples and Notes&lt;div&gt;Creation of new Relations&lt;/div&gt;" style="shape=process;whiteSpace=wrap;html=1;backgroundOutline=1;" vertex="1" parent="1">
          <mxGeometry x="530" y="372" width="245" height="90" as="geometry" />
        </mxCell>
        <mxCell id="-qgodvQOzTYyHsjL0HaB-12" value="" style="strokeWidth=1;shadow=0;dashed=0;align=center;html=1;shape=mxgraph.mockup.containers.browserWindow;rSize=0;strokeColor=#666666;strokeColor2=#008cff;strokeColor3=#c4c4c4;mainText=,;recursiveResize=0;" vertex="1" parent="1">
          <mxGeometry x="-55" y="650" width="400" height="270" as="geometry" />
        </mxCell>
        <mxCell id="-qgodvQOzTYyHsjL0HaB-13" value="Doe, John - PSKB" style="strokeWidth=1;shadow=0;dashed=0;align=center;html=1;shape=mxgraph.mockup.containers.anchor;fontSize=13;fontColor=#666666;align=left;whiteSpace=wrap;" vertex="1" parent="-qgodvQOzTYyHsjL0HaB-12">
          <mxGeometry x="60" y="12" width="220" height="26" as="geometry" />
        </mxCell>
        <mxCell id="-qgodvQOzTYyHsjL0HaB-14" value="pskb.hs.uab.edu/timeline" style="strokeWidth=1;shadow=0;dashed=0;align=center;html=1;shape=mxgraph.mockup.containers.anchor;rSize=0;fontSize=17;fontColor=#666666;align=left;" vertex="1" parent="-qgodvQOzTYyHsjL0HaB-12">
          <mxGeometry x="130" y="60" width="250" height="26" as="geometry" />
        </mxCell>
        <mxCell id="-qgodvQOzTYyHsjL0HaB-10" value="" style="sketch=0;aspect=fixed;pointerEvents=1;shadow=0;dashed=0;html=1;strokeColor=none;labelPosition=center;verticalLabelPosition=bottom;verticalAlign=top;align=center;fillColor=#B3B3B3;shape=mxgraph.mscae.general.graph" vertex="1" parent="-qgodvQOzTYyHsjL0HaB-12">
          <mxGeometry x="90" y="140" width="90" height="90" as="geometry" />
        </mxCell>
        <mxCell id="-qgodvQOzTYyHsjL0HaB-15" value="" style="shadow=0;dashed=0;html=1;strokeColor=none;fillColor=#4495D1;labelPosition=center;verticalLabelPosition=bottom;verticalAlign=top;align=center;outlineConnect=0;shape=mxgraph.veeam.2d.file_system_browser;" vertex="1" parent="-qgodvQOzTYyHsjL0HaB-12">
          <mxGeometry x="30" y="132.6" width="44.8" height="44.8" as="geometry" />
        </mxCell>
        <mxCell id="-qgodvQOzTYyHsjL0HaB-16" value="" style="shadow=0;dashed=0;html=1;strokeColor=none;fillColor=#4495D1;labelPosition=center;verticalLabelPosition=bottom;verticalAlign=top;align=center;outlineConnect=0;shape=mxgraph.veeam.2d.file_system_browser;" vertex="1" parent="-qgodvQOzTYyHsjL0HaB-12">
          <mxGeometry x="30" y="192.6" width="44.8" height="44.8" as="geometry" />
        </mxCell>
        <mxCell id="-qgodvQOzTYyHsjL0HaB-17" value="" style="shape=image;html=1;verticalAlign=top;verticalLabelPosition=bottom;labelBackgroundColor=#ffffff;imageAspect=0;aspect=fixed;image=https://cdn1.iconfinder.com/data/icons/unicons-line-vol-2/24/chart-line-128.png;fontColor=#B3B3B3;" vertex="1" parent="-qgodvQOzTYyHsjL0HaB-12">
          <mxGeometry x="210" y="121" width="128" height="128" as="geometry" />
        </mxCell>
        <mxCell id="-qgodvQOzTYyHsjL0HaB-22" value="" style="strokeWidth=1;shadow=0;dashed=0;align=center;html=1;shape=mxgraph.mockup.containers.browserWindow;rSize=0;strokeColor=#666666;strokeColor2=#008cff;strokeColor3=#c4c4c4;mainText=,;recursiveResize=0;" vertex="1" parent="1">
          <mxGeometry x="-70" y="267" width="430" height="300" as="geometry" />
        </mxCell>
        <mxCell id="-qgodvQOzTYyHsjL0HaB-23" value="Doe, John - Edit" style="strokeWidth=1;shadow=0;dashed=0;align=center;html=1;shape=mxgraph.mockup.containers.anchor;fontSize=15;fontColor=#666666;align=left;whiteSpace=wrap;" vertex="1" parent="-qgodvQOzTYyHsjL0HaB-22">
          <mxGeometry x="60" y="12" width="140" height="26" as="geometry" />
        </mxCell>
        <mxCell id="-qgodvQOzTYyHsjL0HaB-24" value="pskb.hs.uab.edu/editor" style="strokeWidth=1;shadow=0;dashed=0;align=center;html=1;shape=mxgraph.mockup.containers.anchor;rSize=0;fontSize=17;fontColor=#666666;align=left;" vertex="1" parent="-qgodvQOzTYyHsjL0HaB-22">
          <mxGeometry x="130" y="60" width="250" height="26" as="geometry" />
        </mxCell>
        <mxCell id="-qgodvQOzTYyHsjL0HaB-21" value="" style="shape=image;verticalLabelPosition=bottom;labelBackgroundColor=default;verticalAlign=top;aspect=fixed;imageAspect=0;image=data:image/png,iVBORw0KGgoAAAANSUhEUgAAA2IAAAG8CAYAAAC8BBbkAAAAAXNSR0IArs4c6QAAAARnQU1BAACxjwv8YQUAAAAJcEhZcwAADsMAAA7DAcdvqGQAAHNtSURBVHhe7d0PfFxVmfj/B7suCBJwpYrQmJiU1GmLFHS3IEtbupu0atrGLXSXP1Vbg0aKTbV01FpEFIubUmkrlCixdS3/FqymbYQ22S1tsEJVoEjTodkmJqZFtH4FgqD9CfI759xzZ+698yczyWSaTD7v1+u+cufeO3f+3czc557nPOeENxQBAAAAAOTMm+xfAAAAAECOEIgBAAAAQI4RiAEAAABAjhGIAQAAAECOEYgBAAAAQI4RiAEAAABAjhGIAQAAAECOEYgBAAAAQI4RiAEAAABAjhGIAQAAAECOEYgBAAAAQI4RiAEAAABAjhGIAQAAAECOEYgBAAAAQI4RiAEAAABAjhGIAQAAAECOEYgBAAAAQI6d8IZi5zGM/OUvf5HHf/4L+fOrf5ZzzhkrY0tL7Bocb6+//rr84pdPyAsvvCjveteZMum899k1AAAAgIMWsWGq9+WX5atfu1kWLV4i/7vzEbsUQ8GxY8fk23fcaT6be+693y4FAAAAYnLSIqZPTF/q7bW3BseoN42S008/TUaNGmWX5LffHz0q8664Wn7zmx75wrKl8ulrPmnX5IfXXntNXnzxJfnbG3+zS/rnTSe8yRwXf/d3f2eXDL5XX31VrqlZJI89vlfmfrRKVv3nSrsmMd2Cpl/rW95ykpx88sl2KQAAAPJZTgIx3WKjT0wH07vfXSgP3He3vGP0aLskv+V7ILZ/f5vMX/BJeemlgQXwp51WIJs2fk8mTpxglwy+TAKxl19+WWo/v0x27W6VU045RW5V286oKLdrAQAAkK9ITQSOoyee2ieP/nSPmX/llVfknvv+W17985/NbQAAAOSvIZea+Ic//D+pufazcvjIEfnIh2fKDV/+kl2TGqmJ+dsidt21NXL1VVfYNZkZ6qmJj+/9uSy8psYUX9Fmz6qU1XW3jJjjGAAAYKTKSYvYiSeeaFIG05nOOOPt8qZRztM66cSTEm6TaHr72/+Bk9c8pVP2En3m6Uz6eMplEJapD7z/Aln6ucXyttNPlwsn/5N8UQXVfR3Huk9Zy//slMv/42r5wvIVdikAAACGE1ITgeNIB4mfXPAJeeLnP5N7N31fzjzznXZNcrqF+fs/2CRPPPmk/O31gRUzAQAAwPFBIAYAAAAAOUYgBgAAAAA5RiAGAAAAADlGIAYAAAAAOUYgBgAAAAA5lpNxxDLhHR+rrzGYhgP99h557jlpfXSPtLUdsEtFRv3dKDnvfefK5H/6Rzn7rLPkhBNOsGvSk61xxNznt/fnv5Cnf/WMvP7a62b5QJ/fQHnHETue46Qle3+00HvHyYUXTpb3FBf5Ss5nMo5Yfwzm/nVp/CNHnpNfPPFE3OstKDhVJk/+Jznv3Inytre9zS7Nrtdee00izz6rXtvPpbv7N+Y9Pu+8c9Xf9w7pYQgAAAAyNewDMe9J6UXqpPiu+jvk5JNPtmszt+wLy2XzjxvT2pc3WNDb/sv0S+0a54TyJw9tl/9ctVqe/93v7NLEysrOkaVLamX6pVPTHgttoIGYPuHevqNFVn3rNrOPVPTzu3HFcjPOVa4CsuMdiLnvz5p1t0tHZ6ddmtiZ73ynfOkL18uHPzTTfH6ZBkrfuet75jh597sL5YH77jbjn7m8+8pUov0l88KLL8pdDRvk3vv/W3p7X7ZLE9Ov8X0qGNMDbU+55J/TPma1ZMetfr8feni73HTzLfLHP/7RLHOddlqBbNr4PZk4cYJdAgAAMPyRmjgIft3VJXPnXSmfuz5sgrCTTjpJxpaWmJPyK/59nvlbWlISPYFtb/8/ufaztfL5ZV+Ul19OfRKcDYePHJEr539CPrvk89EgTA8o/M8Xf9A8v3mXz5UJ40PmeWv6+X1sQbV8s+5WE2DmO/356WBBvz9uEKYHlb7ggvPN+6OnGeX/agaL1vRnXPv5ZbJk6bKcfH7ZpAOg/9p0j0y5tFzqv9sQDcL08eB9vbM+8mET2OljVt/nqX1Pyyc/9RlZUP1p+e1vnzf36S8dbIa/9GXzHuogTB93hWPGyLsLC6PvMQAAQL4hEMuyPT97zJzEP7N/v5w7caLc/V8b5FdP/lyaH24yLSPf+PpXzd+W7U3y9BN7JXz9581Jvj653db0E1m0+HODejLfdiAiV39sofzil0+Yk+rL5n5UHmnZLr/cu0d+sLHBPL9vfuPrsq1xs3net91aJ//wD/9gnt9d39soN950c14HY08+tU+uvPoTJtDQ749u8dHvxb5fPi4/vP8e8/7o6c471snPf/ao7Nm9U6668j/MtroFVAcTfbUoZeItb3mL3L72W/L4nt3RSX9e77/gArP+Ix+e6VvnnTb/933ydvXZJaMDoC+t+IrcvPKb8sorr5gAaP5VV0rrIy3mePC+3rW33Sq7/meHRJ55yrT+6mNb++men8kVV3/cHFf9oY+rW1SA/+PGreY408ebPu5272yWXf+7w7zHW370oLzjne+w9wAAAMgPBGJZpPvU6FaRV155Vb6yYrn86MH75IMXXZi0b4tOe6z5VLU0qRN93RdG0ye236xbPSjBju778/nrw/Kbnh555zveIRsbviP/ufJmKSp6d8KUQ/2858yulIe3NZq0RO2BH26Wpp88bObzjf78Pn3tdfK73//eBMf/ecvN5j3SrYNu62XQu951pnz9q1+RzQ/cZ1pwHv3pHrnnvvtN37Js0J+L7o+l0wvdafToM+Tv//7NZv1JJ57kW+ed3v72f0j6vPXx9Y1b6uSHm39sgqFJ571Pmh/eJjfduELGnH120hRUfUzoFFx9bOtjXAdv+njSx5U+vjKlUy43/6hRzhlbqgLHe83xFvx/0e+rfj0AAAD5hEAsS3QryOrb1pog7Furvimf+NjVSU+Cg3Qg9N077zAno9qPt2yVx/f+3Mxni279+PJXvir/d6jDnKDXr/+2SUVMp8+XPvFf9c2V5vnpk/b19d8ZcDraUKP7SH3t5pXy//7fH53354518m9Vc9LuE6f7TOlWo9NPP002fv8H/W4hygUdJG5Qz1EH1dq0qVPkvzbcZQKwdOljWx/j+ljXwZg+rvTxpY+zdP3lL3+RDRv/SwW9J0udOr70/wEAAMBIQSCWJT/80Y/N1f3Fiz4jMyrK7dL0nX32WXLDl79kTmrdE1T9N1t+vGWbSZt885vfLDfe8GVTETET+vl9fslic/9DHZ3yPzt32jXDnw5MdPCk0xHd9+fiD15k16ZPv6f6vn997bUh3VfsQORZuet7G0xQff6k82S1CqZOPfVUuzYz+ljXx7ymj6/mlv818+l4+ulfyZP79plW4UyPRwAAgOGOQCxLdBCmW0X+/d8vT7sVJUin//2rrbz4yyefMifM2fCHP/w/2XTPvebEe9rUS6KPkSmdZnmueo3alm0/GXaFKZLRBUt+1LjFzOsiHDP7EUi79Ht7sXqfhip9DOi+frrl761vfat8MXy9KczRX/pY18e8Duj0vu++7/60j4s9jz0uZ555psyZNcsuAQAAGDkIxLLEpGp9fP6ATmp135i5//ZR0yrzpz/9SXY+ssuuGZjH9u6Vjo5Os98r/+M/TKtbf+hWkzmzPmLmOzo6zDhPuaBLu5eUjc94mvavM0y59L5sb26R5577rQlM9GcY7KOUCf3efvSjc9JOS801fRzs+dnPzPz0S6fJBedPMvMDoY/5qjlOMPXMM/vlyaeeNvN9+etf/yofmlFBZUQAADAiEYhlyZgxZ8s/fuD99lb/ve/cCaa0vfbswXY5duyYme8vff8tW5tMa4UuOqGLMgyEHlj35Le8xYzv1dH5a7t0+NJ9mlof/amZ/8AF58v40HvN/EDoNLt3vGNoFpfQLa26NUwH5R+dMztrAePUKZeYwiU6uNrd2mqXpqaPo/6kgAIAAOQDArEs0alZuhLhQBUUFEhJSbGZ//Wvu+Tll/9k5vtLVwCMPOukOOogTA+OOxC6oMPb3+60YPzfoUPm72DTrS13rFuT8fTVr6yQgj76PnV1/8YEvNrkyf/U79ZCr9MKTsvKsZBtOhj/2WOPmfmzznqXjBt3jpnPhjPOOCN6ASHy7EFTDr8v73znO6W4qMjeAgAAGFkIxLJkXFlZv/uGeekWivGhkJl/8aWX0kqtS+X3vz8qL734kpk/730Daw3TTj31reYkXvvd735v/g42/d5+aGZFxtO0KZf0GVj19PTICy+8YFqIJk4Yb5cOzJvf/Hdm/K+h5k9/esWkYGo6aBpIGm2Qbt3Sg5Zr+jHSuYDwnvcUm+MJAABgJCIQyxL3JDQbTjrxRPP3b397Xf72+utmvr/02E6v/vnPKjA4Sd5y8ltMYDeQSRf+eO015znp1ja97+FMt4hpOijRLTT57M/qs9Jpidq7C8fIifY4yxb3/et9uVcdJ38w86no9zzbzwEAAGC4IBAbgrI5ntLzv/ud+fvnP/9Faq79rFx48dQBTZeWz5QnnnzS7FOnukmWBi4+Xrq6us3fk1SgWlDQvxLuw4UOjnSQpA1G0OlejPjr//dX+UsafRvH2nHzAAAARiICMYxor732mp1DtuhW0pdectJhAQAAkBiB2BD0u98PrF9YIrq15/vf+648vmd31qbb135rSPaFAgAAAIY6ArEhyB0Q901vGiVvylJ5cV1I5B/e9jZ5x+jRWZvepvaXjQIlyC+6cMdpp51mbwEAACARArEhyO23pCvKDXSw2zNtX6A33nhD/jbM+3MNhoEM3jzcFJxWICeffLKZd4P9bDrU0Wn+vvnv3xwtOAMAAIDEhn0gpk8sz3qXU059oHTfFl0JsD90afBs0M/hyHPPmfmzzzpL3nrKKWa+v3Qgp0uz9/a+LL/9rVO6HDHFxc44VrpP0++zVI7fBL1/+5u9NXSc+ta3mjHOtK7ubqfYSha5FxB0a9g73jn0xlEDAAAYSvKqReyFF16UY2lUa0tGV3v705/6N4BytgY31pXtOjqdloVxZedEWzD6S1fHc8eLemZ/m/mLmGJbofKll3qjAfBA6TG03PG6hhLvYOGdnV0qOHcqKGbDq6++Kr/p6THz7y4slLeqoA8AAADJ5UUgpgeG1V7qfUle7mcgpR1VQVB/T6Cf2ve0ORkdqKd/9YwZhFkP7PzBiy6yS/tv9BlnRAdgztZzzCeFKmjQfd20vT//hfk7UDqQdocNGEr0MTX5n/7RzOvneCDyrJnPhsOHj0j7//2fmX/fuRNNPzEAAAAklxeBmE7h0/Rgwz09h818f/z8F780gxb3h25tevZgu73VP3/5y1/kxz/eYlLGSktLZNJ577Nr+u+00wpUQHehmc/Gc8w3hWPOjgbyP3t8rzmGBkKnJbb8z07561//apcMLZP/8R/l7W//B/P8mn7ycNbSE/f+4hdmsGjdEjb90ml2KQAAAJLJi0CstOQ9JuDQJ5e/fMIZbDhTuqXoJw89bG9lTqc0PvjDHw3oxFY/98dtq8yHZlQMuFCHS58Y6xPkbDzHfHPqqafKnFkfMfMdHZ3y0z0/M/P9dehQh+xobrG3hh4d4F/8wQ+a+e3NzVlJV/3tb5+XTXffa+Y/cMH5Mj70XjMPAACA5PIiECsqerc6wSw1862P/lReePFFM5+J5pb/NS1iA7FlW5O0/M//2luZ0c/5trXfNq1iOpWwavYsu2bgdKrYtCmXmHn9HB/Z1Wrm4Zg2dYoUjhljAtQ7v/NdOXKkf33F9ODQd23Y2O+CL/2hj5tM+kXq9MTqBR83Fy50v7hvrVk3oAqKugXwexu/byomnnTSSbJQ7Vv/BQAAQGp5EYjpVo3yf5lu5n/1zH556OEdZj5dul/WN775n76AJVNXXfHv5u8NX/2a2V8m9An8ravXmD5c+kT5M5/+lAkus0WXaP/0p6pNSpoO9G75z1XRUuOZ0vdfd/t62bU7f4I5HYR9bP6V5r3/v0Mdcvv6evM6M6EDkg3f/4H8uHGrXDj5n+S8951r12SfLuCiC2Jouk9jpv3+JkwYL5+u/qSZ1y2AK7+5KuPXq+nXfPe998m99z9gbs/9tyq56MLJZh4AAACp5UUgps2ZVSllZeeYVo01674te372mF2Tmg7caj93vbzyyqvyudrPqmClf+mAF3/wIvnonNmmn0zNtZ+Vxx7fa9ekpk+iv7B8hdz3387J7LzL5sq/Xz7XzGeTThe75pMLTbDx664uqf7UZ8xrT5c+6davaVbVZer9vT3v0huv+Pd55jPU/vvBH8rS8BflxZdeMrf7ooMYHcysWn2blLynWL56w5cHXO2yL+eeO9H81UU3Mm3J1YNwX3Xlf5iWQE2/3iWfX2ZSDNOlX/O377hTvnbzLWb+ny/+oISXfs4cXwAAAOhb3gRiZ575Tlny2UUmLUoHQ9fULJK1374jaZqiXq5bdq762AJTtnzJ4uuiJ+L9ocfq+mJ4qTkh1alpH1tQLeEvfVm6u39jgpgg3QrW/D//K3P+bZ5pRdE+8uGZZh+DMciwPvn+5IKPy9Ili83Jsi41PnfeFSmfo6bT1nQLY9XcfzfvlT7xP+WUU3Janvxge7s8vL2535MuntFXUKUDpzXfWhU9BvT9qubOk6aHHjafVSI6JXBb009kZuUck553+umnSd03V8qYMWfbLQbPJf/8QdOSp/tF1t16mzx78KBd49AB/iO7dpvx4xLRrchr1et1gzF9LFZ8eJb5n0hVsES/Zt0HzhuQ66Iydbd8w+wTAAAA6TlBnYAnPgM/TnTVwnlXXC2/+Y0KFD5aJav+c6Vd0zf9Ujb/uFG+8tWvR1OtdNDxrjPPlPMnnRctWKFTAH/7/PPmJFIHbl/6wvVy9ZVXmGBl2ReWm33oFKu76u9I2bKxf3+bzF/wSdPXRm/7L9MvNSf8X77hRnMi79LjeOl0MNMP6W+vS1vbARXQ/Nr3HHWQpIPBdPvXeN+nLyxbKp++xkk164t+j368ZavceNPN8sorsUGo9XN8T8l7ZNw555jbf/zjH02KpS7p77Z+6edZ/q//Ijcs/6K8611nmmWDxfveDpTuD7Vp4/dk4sQJdkly+vP7yo1fk4d3NEdft/5MdEEY/RmOetMo894809Ymv/vd76Pb6OPr1rpb5D3FxSYI0hcCdAtiOsfwd+76nvznqtXy7ncXygP33S3vGD3arklNB3/frFttnoP+bPRQBX//938vr73+mnluZ599Vp/708fgdxs2mNYt97VoulDMu9/9bt/xEHzN+jHnX3WFXP/5JWm3APb3uAUAAMg3edMipulA6rJ/+6hs+dGD8v4LLjAnivqk8fCRI7LtJw+Z9D/9V9/W9DZ62/lXXWnumw2nn3aarLtttWltOPOd7zTLdOub7oujH/+BBzdL24GIOQHWz08/hwfvv8eclOaiyIF+nf9WNUeaH9om8y6fG31M/RyffPIp8xz1tKPlf8xYWPr90y1gl839qOx4aKus//aaQQ/Cjif9+a297Vb5wcYGk+qq6c9Kf2b6s3PfG903S783Onhat2a1/Pe9m0wQlksLP/FxuXHFcvP56OeiPy/d0uk+t3e+4x2mpTYV/fkvvu5a89nqoNE9HnSrWPB4cPerj1vdkvbQtkb5inr8wU7DBAAAyEdDrkUsm/TJpA6Anty3T15/LXa1X7dsXKpOJAcaUCRqEfPSJ62/7uqWnY/sMul/rhNP/HuTAnfB+ZOigwkfLzrVTLcQPr7353L06B/sUpFRfzfKFJz4x/e/37Ss6JPvkUb/a+i0VT3Qs24ddI8h973RgyPrMeyyFcT3l/cz/OMLLwzouek0zMizz8pjj//cd8xquoCMLmijW/9OPPFEuxQAAAD9kdeB2GDrKxADAAAAgETyKjURAAAAAIYDAjEAAAAAyDECMQAAAADIMQIxAAAAAMgxAjEAAAAAyDECMQAAAADIMQIxAAAAAMgxAjEAAAAAyDECMQAAAADIMQIxAAAAAMgxArEBePPfv1nGnH22vLuwUE466SS7FAAAAABSO+ENxc4DAAAAAHKAFjEAAAAAyDECMQAAAADIMQIxAAAAAMgxAjEAAAAAyDECMQAAAADIMQIxAAAAAMgxAjEAAAAAyDECMQAAAADIMQIxAAAAAMgxAjEAAAAAyDECMQAAAADIMQIxAAAAAMgxAjEAAAAAyDECMQAAAADIMQIxAAAAAMgxAjEAAAAAyDECMQAAAADIMQIxAAAAAMgxAjEAAAAAyDECMQAAAADIMQIxAAAAAMixE95Q7PygOXbsmLz00kvy5z//WXLwcAAAAAAwpA16IKaDsKNHj8rpp58ub3nLW2TUqFF2DQAAAACMTIMeiP3+97+XU045xUwAAAAAgBz0EdPpiLolDAAAAADgGPRATDe4velN1AQBAAAAABcREgAAAADkGIEYAAAAAOQYgRgAAAAA5BiBGAAAAADkGIEYAAAAAOQYgRgAAAAA5BiBGAAAAADkGIEYAAAAAOQYgRgAAAAA5BiBGAAAAADkGIEYAAAAAOQYgRgAAAAA5BiBGAAAAADkGIEYAAAAAOQYgRgAAAAA5BiBGAAAAADkGIEYAAAAAOQYgRgAAAAA5BiBGAAAAADkGIEYAAAAAOQYgRgAAAAA5BiBGAAAAADkGIEYAAAAAOQYgRgAAAAA5BiBGAAAAADkGIEYAAAAAOQYgRgAAAAA5BiBGAAAAADk2AlvKHZ+UHR1dUlxcbG9dXy88MILdg4AAABeo0aNsnP9V1BQYOcApIsWMQAAAADIMQIxAAAAAMgxAjEAAAAAyDECMQAAAADIMQIxAAAAAMgxAjEAAADA6mmYKyVl4820ZKddmMeG9evtvlcuO1c/9ynqub9sFw4fBGIAAABIauvWrXZuiHi1U3Y13CBXVU6RSSEngDDTB6bI1Hm18kDEbodB4w3egtOkKZVy1S2bpS0Ho0f1tGyWJ4/puT/I1u1PmWXDCYEYAAAAEnKDsKESjPU+frNUvL9SFtZtlsfa/yC9r9sVWu8fpGdfi/zst/b2cKSCzMfuXSufmTdZbhymrXG9z6vXsPEGmfXBSrnx8QG2Ur1+TA49fq+sXnSlTPpqq10YU1h+pUw7U82cOEbmzzzfWXg89PNzIxADAABAnGDwddyDse6NctWCe+WQDb5GXzhXltetlTvX2qlumVSXh+S0v3PWD0c99y6Tq776Hdmx72V5yS4b6mbUtcrePa3S/APnM5hddqKz4vVO2bRgsTzwvHOzXw7fK5/72M1yR8s+6X3VLvMqmisbWg9I5zPNctP0U+3C3Ovv50YgBgAAAJ9kQdfxDMbafniftNkgbMLSJtn7g69LdVW5zPiQnaoWyPI7NstNU5xtkBsnFpwho0efIWMvdD6DNU2tcmelDYpe3yt3/De5oskQiAEAAMBn9uzZSafj5ejvDts5kdJzSuwchp5TZcbCK6XQ3up54oActfPwIxADAADAkFdwaiz17KmnMmxlOXZYdtyyQComn2+LSpwvkyoXyMqHD4up9ZCJ/uxL3WdXQ1guu3SyhNzCFudOlooF35EnX40Vv5haF3tdW2vsdmVzpaHbLnS9sE82ha+UyR+w24Qmy+R5Ydn0RJI+Wa+/LE/eqx5/ymS7T/Wc590sO7ozfvXpObVACuysvNQrf7Gzx7pbpWGFeu+iz0NN5n1YJTu8KYzdG2WWXle+StrsImmsid5nVoMNyneG45f5HJOeh1fJVZWx9z00WRcTaZGe4EsP7sv9nN33+AOV8pmGfb5+iRl/bgEEYgAAABjyLrjM08rynbky+fP3pleZr3OzLJxeIZ/ZuFcOveCefR+T3va90lBbIVNWtEqvXdqn/uyrc6Nc9oEKWVjXJE8eeTkWrB17WQ7taZYnM2wuMgVLPnil3Ni4T466D6YCraP7muTGK6bIZRs77ULr9U5puFot/6p6/OfdQE095333ymdmXimrDwxCMPZyb+x9GDNa3qH/HlHvQ3mNrHxAvXfR56GY92GjfOZSFbgEnvqAqNf9QHW5TK3dKI+1x973Yy/oYiK1MrX8BtmV7IN/PSINV9jP2d2mt1N21F0p5Te2xj7DASIQAwAAwNAXqpXv3TxFRtubR5tullmTz5eK8L3y2NEkp8avtsoX56sTbh3sjJ4iy3/QKpH2A9KpgpZvfugMs8nRB5bJV3amcWrdn331NslnPrLKllgXGVu5TDY0OcUt9jZtlJuuLBVd2qLwyu+bZT/8dCzl0i2CsXfP92X+GLvQW7CkZK7cuf0p6VTPIaICmUUT9QbH5MlblvlaYp5c+QlZ+YR9Auo+3/xRs9nv7h99XeYVRWRrUzajH8eTP94sPXb+gosvNK9RXlPTiSUyO1wvzXud5935TKvcE7afqQp+VtbbyohjrpR79Gu/79My1lki8qE6+36o+1zpviHJHJNdN35Cvtj6BzV/hkwLb5S9z6jHizwlzbeUO4/3/GZZcnPioKptTa2sfDX2XjXfUimjRznrjj5QHy1AkvbnlgSBGEa2R2+S90++OPF002N2IwAAMBSMnVcvLSrYMSXLjWNyqPFmuUqd7F+21p82prXddbM8YFqcxsii79RL9YVnOEHBySUy71urZL7Jn3tZtm5u6bOVoz/7euxbX5cdboGRcJM0f2uBTCtziluMLpss879aJ/OL1MqTT3WWnWYrDipuEYzRo0+VE00QcEx2qMcxBUtGlcuaB74uM0qc7U8cPVmWrl8hF5hbEdn0Q5sq92qL3HWvDkaU0VfKD3+igq+JY8x+CyeqQOMnm2WRfvwsOaZbjVZUymWb7GMWVMp1VU6QKqNnyYY9TbKmeoqMfZt9nSeeIRdVh+VjZc5N+cVTTiriqBOlQL/2Mwqc91g7scC+H2dIwcl2WTKRernxAec5FH76O7KherKM1jtS+x07d62sudJJc+1t3Cw7ElVjPKVS7lTvr/tejZ1bJ3cucKOqffKzX9pPOK3PLTkCMSCZh643AdmXH7W309Vzn1xlgrmbZI9dBAAAsqNg0gLZ8MhT0rx2gVxU5J4AH5Mn77hSJl+9MVreXuSwPLbb9hsqmytzTIuRx6jJ8kG3wuLOvZL68mt/9tUqW/7bpuAVfVq+WT3QAiN75ZFmO/uhSpkd7YRlnXmhXGoDmp49jzstUr9sjQaCFyyqkQuCgcGokMy5bGDPK9YnaryEdD+qB2wL26gSmX/7DTLNDZpOVsFJgZPGuePetfLFFbVy2aUVMlndZ3W73ebIkawU9uh5vNW2yKkg+aMhM+d10cVT7VyLCqrsrEfBnCtlRuD9veADk+ycOhqez8azJBADrDL53A/3yBN7nWnrZ91LMyLbr88soDqyu1metfMAAAwX+/bty3g6bnTLxoeWyT0tj8vutVfKWBuPHXtilXxyjVs4oVP277ez7WulwgYL3ukzTXb96321h/VjX90d0XL7cv75MsHO9pt3f021cY9fUuYJaOx2Pe0HnBllzJm2ZSrgRPVeZteJUnjxArnzkSa56ULP2F69e2Vl5YWmsMlnvvodeeCBFnnyyGEVeJ0qBX20HGWqIxI7BlbPDL5Palrkflgif9EpkwGF70r8XmUbgRiQwNlXb/QEY83ykG0V23NTIH1RTVfd/ZyzUp6Tu+dfLLO/7X4LNstivc38++SIXRK8f+y+AAAgc+qk/0MrpHlLbTTQ6blvszxp5zH4Yn2inGnfM0/J7o3LZEY0fVQ7LA2fWCAN7SpIHVUi8766UZr37JVI5IB0/nKzXBe7/j2iEIgBSZw9tULea+e7unXA9Jz8+pBz2+vZb1+eRkDlBGmLH7I3rfTuCwAAUir5iMxxM9B63Yp9Y+Qc9wQ/tEx26+IQSac6mWY3Tawf+xo9Wt3L6tEtPwM0ZoyU2lmpqk/wuJ5pywJTYfKkglh+3bFXE7f6Hf1torLv6Yv1iXKmgkQNbJ0/kQdsi2Jh9Sr55pWTZWy0D9X/J8ei6aTZMabUTbcMyfKWBO+PZ1oz3W56HBCIAWk7S67eFEtf1NO6Dztrnt2xW47Y9bGWtApZp7fbdIWc/ehdcptpKPOkQN5aYbZy7gsAAFJ5bNPa5NUR1Yn+FjcbTQUfTvhRIhd8wKbGRe6LBgL90499nXyhfPD9dv6JevnGziRjfKVr1Pnyfnd/2zbL1mSl1z1GnzspWvJ/x13f9/Sfs3pb5AdbBvi80tHVIe617BPfGojUOltku5tMlCVjz7vQHgOewiVDEIEYkIEjdy/wpRYGW7iSOdLdZefa5bbL7P2vtz1u29vFXQsAABI79sx3THXEqQtukIbGFtnxsDNtWlsrFXPWRgf+HT2n0lYPFLloQY1NWTwsd1xRKTdujkjPUWdMqWMv/EEOPX6vrFxQK5v6GHhXy3xfZ8j866+05fb/IFtrPiKX3bJZ2o78QY4eVVN7qzSEw77H9rZg7dq8WQ6p7Xp23itbzTZnyLxrKp0A4/UWWVJZI6tbO+WoGc/smPQePSxtD2+UJf92s+zS22ihq2TRhXY+slau+vRa2dXuPP6h1rWysLJWtr5i1w+m0lA0dfTQD9bKA3pcr9ePydH998pn5sc+uzgnewaG3rlZ3U899yOtsqmpj1a8Cz8h19kW0p7vXCkVX3Xe9179Vr36snrv98qmWxbIZzYNrDXQlfpzS45ADEhiz4bbbdGNMvnQ1LNMqfto/68P3+prEetLV0eqSz1d8mt3sA0AAJDCMenZs1lWhmvlM7XOdOMdLXLINpSNnvJ1uWd5rLqdFC2Q29yxx451yqYvzZWpF0+WUNl4CU2eIhUfu1ka9hw2wVSf+rOv96+Qe6Jjn/1Bntx4g8y6dIpMvlhNKpBa2djh2370lEq5yBau6G25QSrUdlNrNsvvnUVy4vQb5M75Nu3u+Va5o7pSJk8+X0rKzpdJF1fIrNpVsnW/t6lMBW9fXSYX2Eaoo63fUcGX8/gV1d+RXWcskzuXxFcVzLqiy+Sacjt/tEW+WKnet9D5MlkFjU9evEyqkz2F0VNljhtI9ur7qed+aU10HK/kxkj1bV+Xac6HJYfudd73SeeOl5JJk9V7v0Bu3LhXDqf1wfetr88tGQIxIAFdVCPa2lVWIZcWelq1dBB240VqJnGfsUSKS910RX91RmfaKFe7eQMAACChaV/aLHeGF8iMSWNkdKwBQk582xi5oPzT8s0ftUprw1wZG6jAp8cea21ZK4vKJ8Xdb+zFc2V5w1pnLK809Gdfzn3qZXmV/z4FZ06SGYtqZI530N8z58qd9y2TGSWxaoMFJeOlMDpu1qly0Q1Nsu++FTLv4hJff6yCM+37sOUGf3+3kgXyw9Z75Sb1+NHtC0rkogVrZfd9C2R8lisWJnaqzF7XKncumCxj3fdAPYcZ4Xul5ZZyeYddFE8FkrffK8vL1Wt1n6e634SzT7I3UiiZKxt2Nsudi8rlgjM91RtPPFUKyybLvHC9rO9rxOV09fm5JXbCG4qdHxRdXV1SXFxsbx0fL7zwgp0DAvSAzm6KYEK6n9eNcrGa02mJsYqIAWXXyVbdF0zPB/dp1hXL+snXy3a7yGvmrXvkG5fYGwAA5NioUc4Zbn/K0U+a5LQ+FXhSswCkhxYxIAkdID1hgzBNl7T3piK+97MPJk5NvOTGBMsvkm/sfVA+N0LLswIAAMCPFjEAAIARjBYx4PigRQwAAAAAcoxADAAAAAByjEAMAAAAAHKMQAwAAAAAcoxADAAAAAByjEAMAAAAAHKMQAwAAAAAcoxADAAAAAByjEAMAAAAAHKMQAwAAAAAcoxADAAAAAByjEBsiDhy9wJ5/+SL5f3z75MjdhmGrujnxWd2nD0mX7afw1V3P2eXAcNBdo/djH9DHr3JfofdJHvsIgBAbhGIpWnPTc4PZtyUlZPw5+SRHe3ObHu7dDlzx1X09XpeX9L3QE1fftRuNGzFTopiU+ITFH3CM/vb9vMa6Xruk6vi3jc13fSY3QD9kfx/jZPmISca0ASnBXJ3j91m0GX+G7JnZ7Od65Jf5+x5AgC8CMQGqv12mZ3RyZF7wu/9kT5LLp1R5syWlUmxM5dV7ondYLUabL9e7394niQ6V5Kvl+32dkyzLI57zzwnPGXXyda9e+SJTVfI2c6SEeQ5uXu++swvu12etUt8DnXRSjgo9DFJMDbsRC9YDNZnl/lvyMXTK+xcsbyn0M4m/H0CAAwWArFMuSffatr6WfvDp06OHkq3RejR5gQn/CJnX73R7HNwTuofk4cesrPZ4HkPntj7oHzOfRv0SeJwawl59KZY65bvdd0qM52l8uy3v5z4pGRs8QgMwBx7brpcbnMbBT98q33P4t87DJDnmFz3Ybssk+8b5FCZfO6H3v+DjXK1DXCO7G5OfMEiizL+DbnkRvs8b5SL7aJkv08AgMFBIDYAZ0+tkPfa+a7u55KkacWugJpWqevddJB2ue2y2PpEqYBaMEXJ2zoT66ek9+FPrYumCpq0mVhrz7Pfvty/fsDOkqs3eYKxh5qH0dX65+Tu77qfR4Ws853AXCTf+OF19vNVn9UGFWCaz9cTgDx0vXkvR1zfJPU+rHcDex2E3XiRveFS713gZNDXp05P3oDd83+jj0vfMR8M7AP/Y0mP47j/RW9LhLdvzmNOy56aH+rptbEWDI9EaXGJ0qXjtvO3eKT6nsFAOC3HsVRmp5U90Wfk+x/xrE/re15J9hsS979n/xf8+7X3T/D7tDW6nf+Yid4/0fEGAEgLgdgAeK9yFhedpaKx9gRXPfubSuT8gC8OtGTpQCr+JKlL1s/3p9Ztv74/j9lfnrSYYdXfoFsi0VadithVYVfhVPmQ+7JItYuKHfdl8rmFwSAsnj7Bi+tTp4PYBK2nXd9d4D/m1XbRk00dXAVSIbdfnyClVAcdcSmTif8Pn/329bHAekjzXzT48CXO3JHuBL2BdLp08EQ+eoIdlMn3DFJzgxc7ZRCg6Pfb9z+iPsNwFr7nE/7vZejt0QuO7fLwbvc5xVK03ztj6ojNDED+2BUeLyVzNgoZucg1ArFMmT5hzg+tN6XtWn1iFE31sFO0RcVJJbr4RrXsVveqtpvG4kkL8Xr0LnuC6El3sfd9dsfuwA+82nDGg2abuHRJ85xiqWLv/ayz3TfsidyI1tOVVqf2qMIr5B5vKqZNybvnahWEjyBdHfEndvFX3e3Vek/r2cxb7XHs/l8kaD19VgUZJhUv+r+jTjZ3OgHbng1ucBX/PxHjCViiKZPuZ5Yopa9C1plthuj/RPT7JtYSO/PW2HdGNB3Nndz3o71ZHtFnFOr9D7vfU94UUne7jL5nkDmdMeD9XrbHW1z6oHscelKiO7rtnCvF93wij94UDbDd733/ff2S/j6p771rbVps9Jjo2S0P2+PmQ1NH1vcfjq+ehrlSUqaCJu80zAMo85q8r6F7o8wKvkYzhWWX3QT5g0BsgMwPXPRH1Z82krSQQRpiV7o9V1ndq9pxVbEq5FobDHjTJdGHwuJBKYyS74pLE5/IJeRpJXYKunj/L+JbT2d+yv4veVsjjefk14fs7Ic/Fe17I5dUBPqjeVo5beqoN4gxKcReiVpChzAdzPoCxmAKZrDlK/r+qxNrb+vlJVeY9zCz7xmk5glm9ZRuXy3lvZ+9xh6HRRJyj/u4VvjMvudjn23sftrZV1+R8TEfTYu1AX60Vdz7vwjkSmiZ7G4/IJ1mapblskqmph2MHZaGOeNlVsNhe9sxrU7ta8sCye7h3CpLVAC1ZKe9mZGQLG9xX6Mz7Q53yEK1v+Bzx/BGIJYpX0EHb2uITvFx00bsD7Lnqn6mErU6xAy19L/HZH20dbBCLh02P8yek55EfduiV31Jv/E6u8gNX2OpStGWmcAxnzB1LqpdImmf6XsCrFT6aOUMtjK8t7TIzg1R9vvGbcXQwWysX9Bj8uVoUGtbVAIthKnf/+H2PYNMpP5sM3TJNbZVWf/PxtISZ07vOzUZGFxjpHrdMpkQaZIdwUbkPFNYvVk66yulra5WGvL8tY4kBGJZ454o6iDMVstK2GcsPbFWh8BVVjPFqnEdf7oVMNZvYXgFLGfJ1Z9yT1ybZbGvT4f3JJf0Gx9PK1RffYliQZsnNdEzpZ8OmDhoPnL3d/19xLytnHHVHNUUV1hkeDj76m9EU2Kj/YKiQacOwpx0xWDgFWs5sQVnXI/eZwovDJ/vGWQqVtylWdZ7/keP3H1fyn5licX6AW//7pftBapYX0XguCoqlVKJyP4O52YwfTHagmRS/ipkZURUMFPhW2f6iIVbzbzLLIvuZ64/+NkZVsvCsiuQRhht/TLra2Srmt1aE1g3ENMXy/JQRLa0OM/bea2kLA5nBGJZlyDFx6u4LHZiZKtSJfpRPPvqT9mTXc/+7JR5dbfYSWxWqiZ6+sn5xt9SJ77Drr/UJTfGyoIneV0zb+WE1M9bUTJ2TJkpmI4bvZLuSU20U2bFIAJBs91HfCGCi+Ratw9MNDXRTsO6upt6/Svd91y9fl+hkxTvh6d/j+/9sN9N2f2eGemSv4exCxL2s8rFsej53/P+j6Ys3pHi9yka1LfbC4zDLK0Xeay7QzokJBNL9Y1WWd1eG0vpa1kmooIuEwQVLZBtOpUxJDIh3GzWb6seo+8URwdhC6U+tp/6UllZHgjGpEkWLhZZb7fZHQ6poMsGRdPr1LJ6ma1mZ9c769dM1ysGaoyMHacCyfZOexvDHYFY1vhPTs1V6kSpierEqC5JZ2k/tT/fGF0D4T2JGww2LWqYtjaYTuqJPiubFkZhkwRM4RLv2FZ+uu+k8745xQqSbZcRXXjGl3qnW3HixywzaZKBFL284P3uUEHVVbunyj3e16mP1wSvWx/f8QUa3EF8s/k9g6S8F3xyJsn/XqoBn1P9PnmDev2/l0bFVGDwtcqS8lXSVlUr1SbTfIqsqZti1hhF5TJHBV4dnRn0q+reKKsbK2WDdz+BlihHSJavi/UrK6yuVYFXkzRmo+UrhdIy9YIsk67YXifT7G0MPye8odj5QdHV1SXFxUm/9nPihRdesHMAAKA/dDl8U4lRB/0ZFCPB0Ddq1Cjzd9++feZvJiZNmmT+FhQUmL+DSafiTa2L2FsO3brlb9nSRTKctEBXbBtdrKNCtszy3yfaAqaDL51WWNNk1/hF92O2EdngC4Kcx5V6t/UreDsx85q2Vcput1iITncsb5I5LZttcOnne64Y9mgRG6ESlRt3Jv+gnQAAeIeioHgRjitf1UR/eqHTZ8oJfpz1TipixgKPkeixjo/DcuigyOyZBGH5gkBshIobfyg60R8KAGDpAdL1RTq3/2fZdVI33PoCY4Q4LDu2RUyr1YD6Y5WGhmwVxp6GWlkpy2RpVvqbYSggEAMAAH0jJRFDWnwhCxO4+DIZ0yh2YfqVRWTlYv/YZLvCmVYnLJGJmfZPS8oZ/2xqXals8Ix3RtXE4Y9ADAAAJKaL5LgZEwRhGOKm1dXL7MYaUy5eT9dKbVxq4rRFy2SC3Sbx4MhjpHqLHSja7kdPq8sWZ1gUQ+2nVo/75ZTKz6x8vQoEy2OPXVLm9GujMEf+oVgHAADACDZcinUA+YYWMQAAAADIMQIxAAAAAMgxAjEAAAAAyDECMQAAAADIMQIxAAAAAMgxAjEAAAAAyDECMSAdj94k7598sZpukj12UeYeky+bfVwsV939nF0GAACAkYhADCNbNMCKn778qN1G2bOz2c51ya+9Q+0DAAAA/UAgBiSx/fpYy9XF0yvMX5FieU+hnU3Jbf1aIHcTuAEAACCAQAwwyuRzP9wjT+xV0w+vk/fapc92dDszl9zorNt7o1zsLEnt0WbZbmcBAACAIAIxIKirXZ61szOnX2T+Hrl7gU1ZdPuIeft7PSZ3z4+lM+65Sc1f76Yytsttl3nvFxPbp5rm3ydH7HIAAADkPwIxwHADJjeIqpB1e/fINy5x1qby7Levl9va7Y00Pfvty2X2tz13ar9dwhTwAAAgf3VvlFll46VETUt22mWZsvvo1/13htVjh2WXvYnjj0AMSKhZFqfdv8sJ2nTqog7cLr5Rzd/q9ilzUx6DKY3ufW6VmXZJNA0SAADE6WmYa4KYuCncarcYylplSfkqKa0/IJ3tB2TNdLvYyxOoxSYCp3xGIAYYnj5i0eCoXW5bnkbK4Icr0us35vHez15j71MkoTIzI3Koi/REAABSCS2T3SqQ0cGMMzXL8oM1KmCZKw0ZXc9UgZEKdPrdMpWp7g7pkJBMLLW3kwrJ8pbY69tQ1SQL52yU6HXhogWyTS1PGMh50fo1LBCIAXEukg9/2M62t0uXnU3mvaVFdg4AAOTWGKneogOWiKxc7AlY8sS0RctkQiSigjjkIwIxIM5j8tBDdhYAAAx5TsDSJDs8rWK7wv40v2jrl2ktqpGtanZrTWCd4r9fOi1th6Vhjvc+/v2ZlMryVdImKlgs1+szaKnqiKj7eZj0Rc9zclu+zF+17zkb5UH9/Gua1MomWWieT+DxAimQcc+VlrScIRADDE+xjsnXR0vPx1IIM1RcZkvgJ6+aCAAAsqSoVEpVoLPfbTpSwUZjWXMshbG+UgVdNoCZXqeW1ctsNTs70GdLB2ELpd5zv1IVPKUKxnSKY4WsHOe5T8sy6VAB3qyGw2aLwurNZtmEaNphnUwza/qi9q0Cqtn1fW2vAq7tlc5jb1kgl9fp512pllfKBvOcvPdX2y4WWW+f6+5wSL0vBF7HC4EYkMTMW/fIPVefZW9lqPAKqfus2/kLAAAMrhKZGLKzWtECWVM9xt5QpleqwMsTqCWigrfVjSp4qZtiFyjTF8vyUES2tDhBVVBPw1rZqvutee+jHnu9CnDatrX0I1XSbTXTU43Z99K++oPpAG+R5/FTUtuuWyCF9lZhda16X5qk0baKmaAx7UARA0UghpEtOlBz/OQtXX/21Rvtcrf64UXyDbtdsmAtdh/3fonuc5Zcvclus+kKOdsuBQAAmeiU/RE76/Kl4DmpiCmZNEA3nc+dKmRlcL8eHe0RmTCrPBrYuArLK/vZt8tfrKOzNiJT+0yPLJWxaXdXz2RbDDYCMQAAAAxvpiphpVR5UgxLyptkTjSocVIR+xRXldGZtnlb13KpjxY5DG8EYgAAABjGDkvD4lUi4cU2pa5VGht1/6/NUp1J609pKK7gR19KyxKnIPa0NElbKCR9VqvHiEYgBgAAgOHJpB86xTJirVZOf7GOzlgr0q5wMDUxfhspKpc5ofgy+LvCyYtZmD5WkVUy1TuotHpO19ZFZHZtrC9Wv+1cJysjIZlTnmGLnA4qpUMOZRBUalRNzC0CMQAAAAwPOujx9uFy0w+9xTL02GLrlonUVUS3a5wZTE1U29RWSpvdxinhrscka5bl4n+M1WVuS1siU2SNTnts1INK+59Tn4MuJ+Qt1qGmGpEN7Rm27GlFC2SpHlst03L5yKkT3lDs/KDo6uqS4uJie+v4eOGFF+wcAAAAvEaNGmX+7tu3z/zNxKRJk8zfgoIC8xdA+mgRAwAAAIAcIxADAAAAgBwjEAMAAACAHCMQAwAAAIAcIxADAAAAgBwjEAMAAACAHCMQAwAAAIAcIxADAAAAgBwbEQM6AwAAILHe3l7zlwGdgdyiRQwAAAAAcoxADAAAAAByjEAMAAAASNOu8HgpCbfaW0D/EYgBAABgGGmVJWUqGApMsxoO2/XA8EAgBgAAgGGhp2GuCrpqROoPSGe7Z2pZJtLeabcChgcCMQAAAAx9O8Myta5UNqjAa810u8xVtEC21U2xN4DhgUAMAAAAQ9xhaVjbJBPCi2WaXdIXp/Uslrq4ZKddoamgrqQsLLu6N8qsZNsYgTTIJH3DTL+x6HZzpaHbrtDcxzJ/1fo5G6XHPm7842EkIRADAADA0NbdIlsiIZlTPsYuSE0HYVO3VcpuT+piR00w8GmShYtF1tttdodDsrVGBUx2rROE1UhHuDmaArm7bK0sbLSrLR2ELZT66Dad9aWysjwQjOnH2l7prN+yQArtUoxsBGIAAAAYBkplbJGdNQKtVbqlyS5fXSeyfJ0n4ClaIEurRLZu97ZohXzbFFbXymwVMDXaYK2nYa1sDS2T9dWx4K+werNsUPuJ6t4oqxsrZYM3LXL6YlkeisiWFm/xEPVYizzb6FRKFZTFpVhiRCEQAwAAwDDQIYd8rUxTZI1thdKtWVHdHWrLiKws9wRpagq2ZMUHdn4d7RGZMKs8detVR0TadGuX53FKyipkZcSuj0r9WBiZCMQAAAAwtBWVqlAmIvs77O0+VZqiHtF0QXcajIIeoWWxFEjPtM3TkgYkQiAGAACAIW6KLNV9uNa66YcpmKAtlmI4EG3bWgKPd1gOHbSzWmlIJkSaZIevpQ5ID4EYAAAAhrzC6rWyXFbJVF2B0C5LbIpU6f5gvsIbus9XOFBAI7Vpi5apIGuVXOsZKLqnodafdlhULnNCEVm52B8g7gr38RypmgiFQAwAAADDwBip3nJAOusl0CdrvEwNFOeYVndANlT5+25Nba+U6kz6aemCGnqg6LqK6D6ulbX+Yh3mOTXbADH2WKvL0i+zj5HrhDcUOz8ourq6pLi42N4CACCP6Kva5aukTfcRSVCSOlpCm3LVGMJ6e3vN33379pm/mZg0aZL5W1BQYP4CSB8tYgAADFQgfWlgDkvDnPEyK2v7AwAMRQRiAAAMSEiWhyulra42o/4nAICRjUAMAICBKq+TDVXxHfYTCwxCWzY3FsCZDvzOGERttl8KLWMAkJ8IxAAAyIJpdfUyu68URRNo1UhHuDk23lB9qRl41lRP08UB2ptleUhkgt2GsYgAID8RiAEAkBVTZE196hTFXXeskraqen9wNV23pols3d5qFwAARgICMQAAssUEVclSFJ2BYGfPnGJvx0ybWSlysCONtEYAQL4gEAMAIIvSSlEEAIx4BGIAAGRVLEVxh5TaZdoYGTsucQriru1NIuNKGWsMAEYQAjEAALLNTVGsUwGWx7RFy2RCY42/EuLOsCxsDMnyRW7KohOwtbV32tsAgHxEIAYAwCAwKYp2PkpXRWxZJmJL05upRmRD+2apLrLbKG7ARvl6AMhfJ7yh2PlB0dXVJcXFxfYWAAAAhpLe3l7zd9++feZvJiZNmmT+FhQUmL8A0keLGOAy4/uEZZe96bUrnGTwVcu/3pn8V7EPS8Oc+G3MuEEAAAAYcQjEgJ1hJzAqXyVtdpGXDrIWHlwmu+3gq7vDIivL4wM2d/BVd0o0COvs+th6Pa2ZblcAAICUehrmxl3QLElyARUYDkhNxAjXKkvKakRUgLRGVEBm+mrUyTS71rSSlTfJnBZv/w3dulUhW2Y122AreDsRz+MQfAFATlx++eV2Ln8dOHBA2toSXUZM33BJTdSB2NRtlbJ7y4JohVFzsbSx0v/bDQwTtIhhhJsia/psmSqVsZ5O9Lqi2YxZobiKZqUlyYIwV0gmeitZAwAwADoI09NI5hTF6ZBDgS4DwHBAixjg0imKabWIedIVzVU5p7Vrq12n6TRFX+uY2Y8/9VGnKdI6BgCDx20Ra2hoMH/zzemnn27+DvRUbji3iCX6nTbb1UWcG0rcb7IS3Eaq6qWzzhlCIrjO+3vtrCulBQ5ZQYsYkEpRucwJRWTl4o3SYxc5Y/7YecNpVYv2/bKlqX3FOnTJau829ZWytYZiHQAA9N9haVi8Stqqaj0XS1tldXtt3G+y9/dWX0x1gin3dzk21EQ02PPcv4PfawwSAjEgpTFSvaVZlssqmep2DN6uvqDDIZFxpbErcl466FKBVlvduuQdiKfXmX1sXesGeLpVzdv5OL4yIwAAI17E83tcViuyTgVLtiXLMUXWeG+bC6oiHZ324mj3RlmtB1Bv8bZoufdRQVydyPJ1nhY39Zu+tEpk6/ZWc7OwerMK0GgNQ3YQiAF90sGYe9XM+cLvaI/IhLISuz4bAq1qgcFdAQCAEnKrGDfL8mDGSpT34maFrPRkIEpHRNpClTIj0W9sd4d0iNpnuXtfZ/JnwQDZQyAGZMpeTZtTnrw4R09nh/qxCEmq2hw6mEvaqgYAAFLQF0nrZXZklaz2pA3q1MISW6XYubCpAza7Mi26AqN7X8/ka3UDsoNADOjDrgbv1bZWWVK+SiS8NtZipQKzJd7+YOr2tXURmTCrPBZk7Qz788ttP7PZM/liBwCgf6bIUp3mX+OOJXZYdmxTv7/h5uTFsEpDMiHSJDsSpf8XlUqpNEkj/cGQIwRiQF/avfnozlW2YPWljrqKaAqDHhi6NME2ujhHdJuaDlneQtVEAAAGorB6rSwPNcnCsO7DNUbGjhPf8DI9DbX+1ETT50unH3oHgm6VJeb+U6RK9weLBnaOnoZwtN+20+LGINLIDgIxwDW9ThJ1wJ1W509PiAueghURE21j9u3dhj5gGAx6cPHx/oqdCeiKYSVzEvWrwKDSZbbLhlr1NeeYKTEnoeiv5prT5fSaZnsLuTVGqmsrRRprzP+WGVdMzbsXPq+V2rjURP27vqFKBW/uxVF9kdVmqMSvGy9T2yv5zcagIBDrB3M1JNGPlh6HyvOPa6YUJzvmZCh4VcX+UPv3E7zyYn843fVxjxFYr6bgiZlzRcezTcIf4UAlv5Q/1HbbJNs4r9WdqAg43Pk/T3dyj9PAceNO0WPDXZ/6iqJ7jCY7aU34/+My/0fJj7PUz//4Ms8t0fdG0pN4TqSPq5THmj7W+b4bDrrXTTZjcsWmyXK7f8x+DAGmYqF3DDGXvdjpXAT1F7/aVj3FFNwKZqmkusgaXOftH0bVRGQTgVgG3JM33wCAQdFqPnZK9IWhqR/v1Umr8AQ7inr/4fVJV4WsHFdv19nS6t6TsJ3rZH+t5/4JxtDoUI8Re5726pHvRE6fQNRIR7jZt02yK+09DWt9AxrHOCeJC8V9vnqiNSgv6MEvo5+pnvw/THoATN96X0fnkEwIpcrDd/L8kzL/P33tow99PP/jZdrMSpFIRP2P+vW0NJkBwd0SyjGdsl+9VZn0NzQnGZ7vJhP00kI2+Gzr+dBKSbZVYUdwIQLdmnXeffPl6RdflBft9PTX3mfXHg/dcvtFp8vkdUTwQL4jEEuXKa7gBEgbquyyAFMpLy0qOFm8Skqr1AlXkC6ramcTUkHWyoh6HtEfTfUjum6ZTGhcG7vqOr3O/0MfGANDm1btDRCdzq5ysCN2IrazSQVWlbI0egXJ2aZtW0vCK/XX1pXK7ATvi8nN1kEj1Ybgo4Ms7zhqAfo4V8ff7CSVrkxQUlUr62el2MdwNV297rjO4rYDeki9IY1N/pY7+79aNaRO7oHholkevH+c3HzPdeK9Pli0+C65LpsjlABAAgRi6UrSfyhOGuXI3eBkzUy7IChF2fNd25tEVADnex6myk9E9qcbB2aVDSrr6yQ+DtMDI0aoDIiESmtrZXaSylX6OJ8wq1Im2tt+TlCij6vC6uT7GL5KZKKKt/wtX7rVKyRzaitlgnTIIc/rTfidoPjSLwOtXWadaQF3WqxNK787SKp3W5sOGd0P6Y8DkyCNMZgmG81cMKnuOl3Wn+obl5UQ/Ix8n7Xz+er7JD8eYtt4pZe+ni8Oyqamvr5EmuUab+riRbdLn/fQ/cZSpjoG9qm32X27TD79PFmh/iUPfuU8s5yWMSB/EYhlkRkXytNBNGGqj/pxnVpX6mnR8jOtar5R4739Vg7LoYOSYCBh58QtOmp8nFZpTFUq3bRoqRPbWk8r2fTFnipEmhNU+UqyK7vCTppkwlQbMzBipVSV+k8UkqU3YqTRrawiK+8InOCp43F1o26NTXI52rYKOy1AusJVJH4fw9oYmTErQQu1HoB0ernMCUVkS4v7P5T4O6GtrkIaZ7opl844O9cm/L9z0tJ26xZxN63aTVnUJ/jlTTKnxd1Psyw/GExhxkDoYGfhQU86e30wS0IXDGiSKne9TTP3fofuuiMiS931iVLVlfSPB4cO2szvVHS/6j52Xf6pkLvuv9wJepIW29AB0zyR+2Opiw+ct0LOSxGM6SBsnjwQ3f7F+98nKy7wBGOdOuCaJ7/62tPRbUw6ZOF1svfFp+Vm9S85zq7bu5hcfiBfEYhlkb9zp/1BDF5dNmXLk7esOZ1AY/txKvcMpIiAvtpZo07ilslSX7Dkucpa7vyQ+4MpfYJmT7zMdk5/MW9n1+hJRLK0Q5NmqZ7/YpH17mtK0F8Nw5T3ooOeAid/vnL9akr0mReWV8qEQKqdTjuU8OKk/yPBFiDTpyqYrpeOPp7/8WTeF09Ln3nNprXdCdKiKcLdLbJFt5QFBxev8l4cSZFWnMKuOwLj5envhNp+vtd5T5fC9hxL0Ul999otEokb1D2YVi4h/+9F0QJZH/gsp9V5f08SBPFaJseDuRASeFx1nzX5nF4+8y4V8Dwgl98/z2mZCgRk3etukAf/4wG5y5PFUhG+WcZFNsm2RAU9VJB1gwruHqivsAuUmStUcBVreWuuWyEH1T69QRbpkMDIQyA2aHQg41x5dEZ8V4GPGV8qs0IV0+pUMBRqktX9aUXSgV+ZLewRVzTEW1WoUhr1SUNcSlKtyDp3mwMqWKuIbeO27CUrRhKlftDXebZx+6vlW7+ekShY7CJwohYs1pGw1dQcD97jW7e8SnxgEaVbd9UxtcjzWAn7VKWhj+d/XBV5W778LdpOkOYU8zB95XRLWeA7Jb7VPFNOS5tuSfEFFjUqIEQCOnDxHEvRKXVL0rRFun+vviCQrLJiqYwNfLaFJaVxxVy8aYeJiklldDzoC2gJjqn8VyF3mZYpNyC7Rtxw7OAB9c/gBmnudIEKpOz6OO1Pq3UPyjzv9jbd0NGtN5HLqzyBGoARiUAsR9yqgv5BffVJjTNWRXrpevEDFTqcqmmlJZ6TV92/wA4s3PcJpgrKWtQJgfcKfNzVcB0UuoHlYWlYG3vu7utZqKtAek8q9Oj1+o4BpWUhOwc4J6PiXp3XKXhVtUkvVjj/R8HWB6fVIb+Ce0/Ll5vi6waypk+oE3jGtahkWVzlSzOl0VcW6SmyYxDWl9pjOsNS9+aCmb8qrUkzxQDogEynBj4oN3j6Zrlpgv5pb/IWrNDNviqM7kSaIQAvArHBZE6gQjKxND7l0EymP4BTiTE4vkWMP8gyQUww7SR4oqaDMJMC2d8yyc7V8OScfiXB12OqSZpWBtvql6SIyGCfPGKY0a1i49wAXx233tYuH1s5MDqkgmfS/0t5VrTDbfnYYSpEeotx6H5xuphHOHXfzwFxLvrEl8rHoDDFoHT2g7f/X2Le1FynRTRFenh/6AtoeVcAJ1NFUnaebQlTxo0fJwfv29ZncY4odeekaYuGs/8HGxkAGhjpCMSyRp1Ehr1X5NXtxasyTvHYFfb3B9sV1lf7Y0GWUyXO29HaeRxvnxpTcS7QmuXTvVGW+Frggs/V6QvSVlcbqO7lfy59c/oibK3xvCYVJC4MppZhxNP9vLaurZUt45K3hiXtD6WZ4jJ9n8QOKyblskO26OAzkFrm9ovLVtn6ROluzmPU+Pv2xX13YCCC3/fxmmShN2XcfH960lSDn5v6fHThpQEx6cK61dn73FplSd4WaWmWa4JFOkwfr1jqYFHlfBVYrZB5vuqFCe7nKpkl80MHZcVV/mIezTWxdEfTx+z+eb6KiN3rrrHFPPyBIID8RSCWTQe91Q6T9c3qSyDdz1TUCnSabq+X0mjfjQrZMstbRCNJ3w4z2bSXIvXj7Vuf4LnqK7TRdBlncsZRyywtSbcE7g53xF6TaaljQOeRIFisw18BNEAHUhKR0hStOzpdNvmFDZvKV7fO8xgJCih4TyaDxTrUNLSKyDgVIdsSBZ9u2m+CsvX94lZJ1e+De+JvvgNUgOz9HMsjUpW09R6Z837fB7/LNfWdWxuJ/a7UNJl00Wimg/qMnIJOdv1iMRe/BkoXnvLtt6xGZFBaXoeIuP5fm2T+ky/GinOUXCd7n7xZxJaTd6Yb5Lxwsj5eRXLdY0/LzbJCzvPs94bxKyR6jwT7PO++82SWvebiBmp6OeXrgfx1whuKnR8UXV1dUlxcbG8BAIA+mRRzyfjiF/wuv/xy87ehocH8zTc6UNMGeirX29tr/u7bt8/8zcSkSZPM34KCAvMXQPpoEQNcpuN7glYb2yHeuTKspww71OsTKs/9g60uwQFd9cRYawAAZIH5Dc/wdzuhw2bw83SHOjG/7d7UYiABAjHADZTKV0mbXeTlHzBVVyWTQP+JFMxVbadwiltUYmtN/A9CsABF8uItAACMTHr80uCFy4wvjgJDCIEYRrhWWWL7XThVLOP5B0y1BVNs+fDUDpsy/77CKaZPR0RW3uFeUeurQiUAAIjSlUI9Fy6jlZo1c2E1zQulGbMVo9OsUqr7Wnr73psgkhYyBBCIYYRzBrbuX5n/PiSp8pdoCALfGHAAYEra0z8MAPIZgRiQKT3ocDplwzsi0ialMjZQ5c9fctoZJ85bmY7+YQAAZMb0yappUnNuxc9gy1irLImmMwZ+a6P9yFJsY/uIJVrmbq8ntx+4eT6mP5mzzVQ9tETEVtfWLWNJWu9iLWfOc+GcIL8RiAGZ0F/W6ot+gmfctoFxWuSiKRYty8zQAnzxAgCQPpMKaLoY6KF29G+qt0VZD2fSJFXub63aLjhWanrbeOlAyQ7/47lPPCelcbceWsJNq9Qpi2asyGA3h8OyQ48dOas8w6GPMFwRiAFpMlepyldJaX2gmEagKuKAcsCLFsg28+XvHQ8LANBfBw4ciI7VlW9TtulS9JlOOee2KmX4mzu73hOYmbETI7KlxX/RM51tXD0Na2WrDqy8fcam12XQ1WGKGfdv63ZPFUbTpaFSlppzDOdCLcW78huBGJAGnWIwta7UXGWL+5I1fTns1TD3Spdebgbd7ZBDgatpPZ0dIqGQlNrbAIDBoYMwPSGPBIt1eApiJBeSiX3+6KazTUxH+8BbrgrLK2VCY1P0wmtPS5O0ZWugfgwLBGJAH3QQtvCg/uLPsON8UakKtiKy3+kMFtXXlzeBGgBkR1tbmxnsON8nDFNF5TIn5KYn6rREkeWL0qvKiPxAIAak1CqNjSFZvi6dK25BNu2gxtMZd2dYFja6aQdK90ZZEugwfG0d+eEAAAxlugJy27aWAZajHyPVtZVOeqJOS5RKmREo8IX8RiAGpNLdIR2mA68nHz2DvPTC6s2yO9xhKzipqUZkQ6BlraOuIrbPRH3QAABA35J0CRgMZkxR3V/NVEa0doajVROD/BWTPXTRjsYmaWhpEvFdhKVq4khAIAa4Eo3bo4tneHPRvVNaeelOMBa7X9/7H5QxzQCMULa8tvdkERjOgsU6vMGK+k1dWuVePB2sgZ1duphGvQqiamLPpUaSD21jin/Y0vq+C7lTpKqqSVbWlcayZTBinPDGICcXd3V1SXFxsb0FAAAS01fA1ZlcfTYvyOhAzJbY9lZ3Azx6e3vtXP8VFBTYOWTK9EUX/kdHIlrEAADIC04qkz81yhnDiBM8YKjSfdFFZs/kf3QkIhADAAAAjgN3PLKldEsYkQjEAAAYEKclKtZnZa40eIsFdG+UWXrZTv1Xr+9v35Xg4/grspaU1chWNbu1xlnvtIw5fcSifWjc59Lt31d8QQDbt8yzTbIiBAD6wfwv2jFK0+xzjvxDIAYAQH+Zk6ka6Qg3x4ru1JeaYgH+wCUiK9eKrDfbZDgmodXT0CQTW+xjqGlDVZMsdDv9m2JD9TJbzc6ud9Yn72emixk0SZXdT2d9pbTV1XqCRx2k2X5l7jYty6RDBXhUcAOyJFqsq3/fB8gPBGIAAPTTrjtWSVtVvX/ICRUUbagSZ2wgj9m1A7vqXVhdJ9WeMYamzaxMXA47DbPrPSd/pppbRLa0OEGWmyq129uvTJ00rg9nY9wkAICLQAwAgH45LIcOJu5kb4Kkgx2eoCUkE0vt7AD0NMyNpQvWNNmlmUr9XDraEw8qX1heKRP6GfgBAOIRiAEAMOQ5fbqmbquU3Z6UQgDA8EUgBgBAv4yRsePiUxC1XdubRMaVZq8D/s4m2SqVOenUX1qWOAWxp6VJ2kIhyULDHgBAIRADAKCfpi1aJhMaa/xFLHaGZWFjSJYvyuK4QKUhmSAdcshbUCMuNbFEJoZEOjoHVlCjsLpWZkdWydSwJ8Ds3ijX1kUG3M8NABBDIAYAQH/pymcty0TqKjx9t0Q2tG/2FdbIhFt+PjrpyoimWIaYaozO8iapiktNHCPVtboCovNc+l9ufoqs0RUYVYAZfQ7lTTKnJVUlRgBApk54Q7Hzg6Krq0uKi4vtLQAAAAwlvb29dq7/CgoK7ByAdNEiBgAAAAA5RiAGAAAAADlGIAYAAAAAOUYgBgAAAAA5RiAGAAAAADlGIAYAAAAAOUYgBgAAAAA5RiAGAAAAADlGIAYAAAAAOUYgBgAAAAA5RiAGAAAAADlGIAYAAAAAOUYgBgAAAAA5dsIbip0fFF1dXVJcXGxvHR9PPPGEnQMAAIDXOeecY+f6r6CgwM4BSNeICMQAAACQWG9vr53rPwIxIHOkJgIAAABAjhGIAQAAAECOEYgBAAAAQI7RRwwAAGAEGw59xPbv32/nhr+XX35ZLrroInsLIxktYgAAAEAO6CBMT4BGixgAAMAINpxaxMaNG2f+DlePPPKI+VtRUWH+YmSjRQwAAAAAcoxADAAAAAByjEAMAAAAAHKMQAwAAAAAcoxADAAAAAByjEAMAAAAAHKMQAwAAAAjxtFnmqX5maP2FnD8EIgBwDC0KzxeSsKt9tYAdW+UWWVzpaHb3gaAYe2o/KpZBVu+6VdqKTC0EIgBwBDT0zBXSspUoOWdshV0IbtMEKs+nzkbpccu8jKfZZJ1ALLvz10/VUHXQSn45wozaLI7nf+uXnnlVbsRMEQQiAHAUBRaJrvbD0inmepldmONzGo4bFdiyImskmuz9vkcloY54/m8gUwd/ZU82l4g51f8sxSfbJdZo8+NXwYcbwRiADDkTZGl4ZC0tXfa2xhaQrI8XCltdbWkdwLHzZ+lq/15ObnsHBltl2TC9BuLpjH+VLoCrWf+9c3yK2+eowoATeqj+avW7+lSzwboG4EYAAwDHe0RO5dMqyzxpTOGZZddE7Uz7FmvpqQpc+6+EuzDIy6FMpg+aR5P7cN93HxO0Suvkw1VEVm5OJ3XGPysPP3zTKpjhaxUH3dbXYVZT8sYkIZXfyeHXzlZxrzjLXZB+nSQ9ZScH0tlPL9A2n/qCcZe7ZLfnnqJZ/2Z8vxTwWDteXnq+Xc56y8ulsyfBUYiAjEAGOpUILOwsVI21E2xC+L1NDTJxBY3lfGACgqaZKEn8DFBU02HLI9u0yzLx9mVPjotrka2VtWrbepkml0apIuFTK0rlQ3R9Em1v4M1CYIt9Ty2VzrbbFkghXZpPppWVy+z+0pRNIFWjXSEm+37pqb6UllZPl6W7FTrixbINv1ehkQm2G22VY9x7gugDwVySqbphyrIOvjbM+X8cz3taKPPkbJTXpXDv7ftWicXy/uKPaHV6HfJmfKq9L5ibxsnS1lpf9riMJIRiAHAUKRO6Ke6LSY1TeqkfHHSoEgrrK6T6iJ7Q5k2s1LtIyId5larrK6LyOz6zZ5txkh1XTAw0kFYhayUZbI7RdCng4nVjSEV1HkDNbW/dctkQqRJdvjS89R2i1LsK69MkTX1qVMUd92xStpUkOsLrqbr1jSRrdspyAIMTD8KcrzSq0Kq5+UpT9phc/Oj0u4LshQVsP00uv4pdY+gfgSBGPEIxABgKPIV6zggS9sr+kzt86UKquAtqrtDBWSVUjXd3k5iy2IbhPXVctURkbZQpczwBH5GUbnMCUVkvxP9WaUyNrhdPjNBVbIUxcNy6KDI7JnxgakJnA92pJHWCCChk09RoVCwlSpNp5TJJW7aoWf6Z9sKZvqH/fSwjIlWYjxfzjRrgIEhEAOAYWDaokStTS6nz9HUbZWx4K1endhnRPdBC3la0dBfaaUoAsiy0fKud4k8355hoYxTCuTkVw7L75K2pB2V3/5W5MzzqbqI7CMQA4DhbmeTbJVK2ZCsJauoVEqlSRp1H6SkQjJn3Wanb1kfRTqkNJQ4KOxukS2RkEwstbdHrFiK4g71zseMkbHjEqcg7treJDKuNK/70AGDbfS5l0iZtMujCQZvPvpMfCVE4+R3yphTXpX2p/wB3NFn3H28VQpOEel9Jbb26DOJUhOBzBGIAcAwYPoWJUoH1HRgJB1yKBoYtcoSb2qiLX+/tcZTnU/3BwvHp89Nq7OFPlIFY0ULZKlOvyv3bqP2t1j3f6r19VUbsdwUxTrv52BbNoNjwpliLN6+dE7AxnAFQKbeIsUXV8glZb2BPl+6KuK4JC1a+j5uABfb/uCpbhl8tf78MpH2R6PrfnsmqYnIjhPeUOz8oOjq6pLi4mJ7CwDQF93Xa2pdoFy9rmLoKaChqxYulNgy/30qZUO9yMIakQ2eyofB/eqqfKZohK7kV94kc1rcYh62aIfadHb9AVmTpG+ZeQ6N9oYS3Z9Ll60PPIe8E/feeemU0RrZqvv7eVsrzX1U0Gpvms8r+B55tol7X4Es6+3ttXP9V1BQYOcGx/79+83fceMSlnsdNh555BHzV/c1AwjEAAAARjACsdwhEIMXqYmAS1+BTpKOpa/8R6vReQdfNS0H3nX+yYwLFDd4q3fy7gsAAAAjBYEYoNOndFDkSxWKMelXB2OlxHeHxdM3ZoxUb4mVGHen3eGQKT++1KR0TZE1gfV60uMGCf1pAAAARiRSEzHCOX04RPeDkQT9WRL2/3D6z2yZlazfhmefycZtStmvBACQDZdffrmdy18HDhyQtrZElxHTR2pi7pCaCC9axDDCOa1VSQMmIzgg7RiZMSuUtKJZT8Na0znfaQ1LzFTAozUMADAAOgjTE4DhiRYxwJWowluSlqtoumLcuE20hgHAUOG2iDU0NJi/+eb00083fwd6KkeLWO7QIgYvAjHAlbDUti3jLZ6gy2zXZPqAxQViet3aUIIALcaUEG+v9ZUiBwBkH4FYeoZLIPbyyy+bKR8QiEEjNRFISRfjaJblskqmupUOt1c6xTjGlQaCLRW0rW2SCbPKkwZhusVsdV1EZs8MBmHByopUUwQAwJVPQRjgokUMcCVsEUtMpyauLgsU60gn5TCDxwAADAwtYukZDi1iQD6iRQzIlAq4VjeGZE65v2JiT0uTtIUqZUaKfl+7tjeJVFUShAEAAIxwBGJAH3Y1bJQeO29SCMtXiYTXBlq9DsuObZE+0xIbGyVBWiIAAABGGgIxoC/tnv5htiJi/PhhnbI/IlJakmhcMau7QzokJBNL7W0AAACMWARigGt6nXQm6Ls1re6AWh6bEpelT2M8sqIFsq2dkvXINl3Z014oCLfaZUF2m6TrkRO6H6n6nJbstLeHBI6NbGiuOV1Or2m2twAgPQRi/aDLjyf80dKFGKItJ3aa401r85wweaa4H+XAflL9aJvn0keFPV1YoqQsLLvsbaMfzzXR83Ae390m8fNIZxsML84xFZzcYyxYAdJO0f8Zd33gmAxwj5tkx3/C49plTniTH2upn//QkvJ1KrvCFbJyXL1zoYAhEXIv5bGmj3W+84aD7nWTTeGL2DRZbk88Zj8AZA2BWAbck7epdRG7JAE9tpSn9aQzwXhSs+s969Xka0UxVfU6ZHmLXV9fKVtrkv/I61LoKZnCEnY+KOVzVb9As5pj68zz8J8U6xPlqXWlssFuszsssrLcf8KYzjYYpqrsyX908rcmBo9zf5AQkgmhJmlMepHB6XOXlC2Yknoffejj+Q8Jfb7Ow3LooMiEshJ7Oxk9DEPwM0DOmVbxPlrOc45jQ7dmnXfffHn6xRflRTs9/bX32bXHQ7fcftHpMnkdETyQ7wjE0qUCpIWNlSag2FBllwX0dHbYuWScfkTJHXbGofIWgphepx4vIivviG+B2xWukY6qSplgb8dT+1u8SkrVNkF9P9cpUu3tBzV9sSwPiXR0HrYLbHGK8OLoyWthda3MFu8Jox0zqz52gltYvVbtp0lWN7j7wcik/xFCsnWttxXWY+c6WSmVMlsdc4mYCpVVtbJ+Vop95IGR8jqB46dZHrx/nNx8z3XizRovWnyXXNfX9Q0AGCACsXQl6T8UJ26Q36AUxRq6W2RLJL4semmZOhs92OE/CdOB4cFlsn5RkjNVpaeh1qQsrZlpFwT1+VwHaGeTbFUn01W+q79jZOw4kbZ2cj5GutJaFbhHmmRHgou+usz/hFmVMtHe9nMuAujqkyb4T7KP4a+P12lS4ipkpYpp2+oqTGu9abE2acdh2eWmH5uUYyfVeFbgAog/bVhNcemj7hRoxXYfwzyH2Hap0qihmPfLn+EQTJONvofuexz4LIKfobNPzz4SpJjr+/geJ8k2XsmPjXx0UDY19fUl0izXeFMXL7pd+ryH7jeWMtUxsE+9ze7bZfLp58kK9X998CvnmeW0jAH5i0Asizra1TdnY02SHzvFVM2LyMry2I+b78SlIyJtUipjA8UcCktU5BaJqPta+odXpy+ui097jFI/4iYlMEm6SZ/PNcAEdZFKWRptJRsj1bWV6gSwNnpS0dOw1hd4mVa3UEi9Ir+EgSVGoCmyVKeqBlt71fG9ulEfa0kuR+vWMnUsOsfZFKlK0mI87PX1Ok2aW7NpqZ4QdtKIYylvTbJwe6WTcpkgPVrTJ+betOHO9nqZbdf1NDTJRDc9Wk0bqtT+4r4j1LLFIuvtNrvDIdlaQ9pxJnSwoy+oRVPE64PZC+o9LmuSKnd9yzIRFXR7g6Zdd0RkqbteHw+ySqYGgiYdqDfOdLdRn3NklVwbDOg8Uh0b+adC7rr/cifoSVpsQwdM80Tuj6UuPnDeCjkvRTCmg7B58kB0+xfvf5+suMATjHXqgGue/OprT0e3MemQhdfJ3heflpvV//U4u27vYio8AfmKQCyL/NX17A+i9+TF9g+IbpOg31XfWs04VqX1KarvuYFaS/IWvD6fq+ZeUVfT1PZatV1gf7qVsL40Glg6P9xDsJ8NBoc3kNdT4ORPH9ve9YmO88LySpnQ2OTvV9jSJOJJeQ0KDoo9baY6eQ3sIy19PP/jbWCvMyTLF6Xo82OCXbWN7ztiiqyxF24Kq+t83y/msb0Xgwx1f8/FoPjU5JHEf4EtNtXIVrtFIuaCmDczQX2n+vuPBT4j9RuyXgW8bdtaot/V0+q8n+EYmTErwYWuqnrPfvUFEP8+fPo4NvLSzLtUwPOAXH7/PKdlKhCQda+7QR78jwfkLk92SUX4ZhkX2STbEiV3qCDrBhXcPVBfYRcoM1eo4CrW8tZct0IOqn16gyzSIYGRh0Bs0OgO0M6Vx9XJTkzUj665ipx23w+dQlIjHeHmFJ290wjU4iR5riYd0wZrM5vMiYXvSqxOdXGvuuupJSSr1TakJ40QwWIXgRO1lEVpXOrEcmmVt8+g7lcocem5MXpQ7ECQMb2yfwFAH8//+Bro64xvWffRre+hSpmRYhtfalqNCgrj9PEYI4oOXDzHUnRK3ZI0bdEymWAuCCQryJRGhoTiTTtMVEyq72IuHmkcG/mpQu4yLVNuQHaNuOHYwQMHRdwgzZ0uUIGUXR+n/Wm17kGZ593ephs6uvUmcnmVJ1ADMCIRiA0lpSGZoH5eDwV+kKMpfiZVKdYfxEwq6Gpzr8aGW216YKA1wpxE6RSXBP0L0mWDxuhVVJs+5kt9tFdr3cAy0QmDFncVGCOaPhkV97jS/QqrapNeRHCO72Drg9PqkE/FLI7v63T6JE3dVpkiZQ5Z4WZJRDMLMix1r7Mf1Ge1UGIXFfT3NAZCB2Q6NfBBucHTN8tNE/RPe5O3YIVu9lVhdCfSDAF4EYgNJtMnLEVxDsUXlBSVSqk6+dofiFz0NhNmlUuht4XKnVqWqeDNXo1VQVFh9eb4bcxJlFPxcZu3EqJXGs/Vx/Rn60PCwNIpt60LEACGbhUbp1tjD0vD2o4UKXVupU7PsAreYzxvinbk4HXq/81k+7FFdjYk6VuGQWC+23V/v4hsaUl9scybsmqqauphSLLZmpvq2BgxiqTsPNsSpowbP04O3retz+IcUerOSdMWDWf/DzYyADQw0hGIZY06iQx7r1Sr24tX+VM8dob9aXvq9sJGb1Di5O77OrybbbxFMrKh7+fa0xD2X5nt3ijX1tmAUN825eybZKG3X01wG5N2FpGVi2OPZYp+yDJZmjS1EiOR7oO0dW2tbBmXvDUsWVVRwxyPfZ/EDgu5eJ3u/6ZvTL9WWaL/n+MuoKjlCVMTMVC7wn0VNwkUSQn8ZiQq5KS/gwck1bGRl5rlmmCRDtPHK5Y6WFQ5XwVWK2Ser3phgvu5SmbJ/NBBWXGVv5hHc00s3dH0Mbt/nq8iYve6a2wxD38gCCB/EYhl08FVMjWaRlRhSscHK5b5UwadgZu9fWd0i9bucIdJI3S2kcEpgNHHcy0s0QMvu+vVZPqdeVvUdL+yZll+0FPwQG0j4WZfq5suCrJhXOyxTLoTV9pHhGCxjrgS6F46wJCIlKZoKd11R+DCho9TpKCtbp3nMYKpfWrynkwGi3WoaSj0b8z8dfaP+d/U1RCjr1992ej3X52IrzcDr7vLm6SK1MRB4n3/K2TLLP/3p8lkqI3EvqtVQKz7XkZ/M6brcSY9+1gs5mLeQCU9NvJVXP+vTTL/yRdjxTlKrpO9T94sYsvJO9MNcl44WR+vIrnusaflZlkh53n2e8P4FRK9R4J9nnffeTLLpjq6gZpeTvl6IH+d8IZi5wdFV1eXFBcX21sAAKBPumrtYF2IG0Euv/xy87ehocH8zTc6UNMGeirX29tr5/qvoKDAzgFIFy1igC1O4Fz5VZO31USfDHnXeac+xl4zbGf62P1SdcbXzyPDzvoAAAAYlgjEMMLp4McZEsApiFAvsxtrYtUlExVIsSWpZ9f2nWLpH2xVVzTTKV+BFL1osJZ6zCEAAADkDwIxjGimTHhomayP9suYImvqK1P2wXHvk07BEf9gq7oPYHDQW6dQiu5b51TABAAAwEhAIIYRzJYJd6s8upKM5+bQAw5H0moNS48uepJiWAEAI5Npjad/GADkMwIxjGCdsj+i4q6SQBCUZDw3LZPWsITsGE1VlO8HAAAY0QjEgLQ5LWj9bg3TfcFqmmRCeDFXuQEAAEY4AjEgXTvXycpIgtasYGXFBNUUexrmJhiLDQAw2A4cOBAdqyvfJgDDG4EYRrASmRgS6ei0FRJd3R3SISGZWGpvW7u2N4lUVca3ZgUrKwYGrN4VHi9T60plg1rnHbwbADC4dBCmJwAYigjEMIKNkbHjRNraO+1tqyMibaFKmVFkbxut0tgoMnvmFHs7PToIW3hwmeym0z0A5FxbW5sZ7DjfJwDDE4EYRrRpi5bJhMYaWRItJ98qS2qa4vuB9avIhg7eQrJ8XbYqLAIAACBfEIhhZCtaINtalklHjdvHq0akPj6FsKezQyQUkkC2YmomxTEiK8s9/cdS9CMDAADAyHHCG4Pcpt3V1SXFxcX2FgBguIqm2gb6QWIoOywNcypk5bh66azLLLUaI0dvb6+d67+CggI7ByBdtIgBwBCmg5+SsrDssreRz1plSdl4T6o0ACCfEYgBwFDVvVFWN4ZkQqhJGofAyfm0uviqoBhKEgVyY6R6i/rcaA0DgCGHQAwAhqieliZpq6qV9bNCsnUt/QoBAMgnBGIAMCQdlh3bImbIhMLqWpkdaZId3XaVywwmHpZd3kHFbSEYM4h4YJmXb72afK0o3RtlVtlcadip/+r1TmqkSZMMtzrbWMH9eNc7aZWxyfcY7nM3j5Vkm2HDaYmKvVb13nk/qyTvZ+aCj+PZj3k/a2Srmt1qiw8576XuIzZeZjXY8RLd59Lt31d0fZRzv9hjDdfPBgCGLgIxABiKdq6TlRF3yIQpUlUVkZV3+IMgR5Ms3F5pBxSvVwHbKpmqTpqnttf6ll3rOdHWwdPUbZWy2x2E3FYO9Z9oq8dbK7LebJN4HDwdaLmDlUcfy67TJ/yNZc12uZrqK1WAEAhQ9HNf7D7GAdkdDqlt+hukHCcmsKmRjrD3tZaaaqmZvp996Wlokokt9jHUtKFKvX9ukG0Glnfe/9n1zvrkA8jraq5NUmX3oz+btrpaz2ejgzRb4MPdxh4j8QEbAKC/CMQAYAjatb1JpKoyesI+bWalSGNTgiClUjZE+/9MkaUqmEm0rG1bi20Va5XVdeIf365ogSytEtm63R/oxY2n56UCEN1/bXmLN6iYImvcx1X7XFM9xpnXpleqICEi+zvsbcM/zp5p+VPB2VDoD5euXXeskraqetnme611KkjK8P1MQ2F1nVR7Bpo3x0QkIr63NE2z6z2f2/TFsjwUkS0tTpDV07BWtoaWyW5vvzL1ea73HUcAgIEiEAOAIccOBr7IcyJsApk0g5RUY94lGd9uYaNdHxWSiakGzuuISFuoUmZ4AoM4prXIfQwnbc6vVMamuv+Qd1gOHVRBzUzP52SZIOlghydo6eP9TJMvFbRGBev9kvq5dLRHZMKs8rigsbC8Uib0M/ADAMQjEAOAIca0SMQFS7b/T1aKdlR60gk9UxYr65n+YeVNMieaSudJW0Q/OH26fCml9SrYAwAMWwRiADCkOEU6Jnj7HHlPvBMV7chEUamUZiP9rzQkE5I+F92ip9PfNvtS6fLPGBk7Lj4FUTOppeNKB5SK6LOzSQXiKoDOwfABpWWJUxBNFc9Ura0AgIwQiAHAUNLdIlsiIZlT7ulz5Ar05ekfXfhDV9bzF8XoaQgHCmn0wfQr06123v20yhJTNbFEJoZEOjpjz3NXOFFq4vA3bdEymdBY4y9isTMsC4OppQOlA1/pkEPeghpxqYnx73t/OFU6V8lUb4XM7o1ybV1kwP3cAAAxBGIAMISY4g9J+16NkRmzQtJWt25AlQX1wMym4l407VFXWazMuPUqfj81Iqa/1BipXrdMpK4iuv/GmXmamqgC0m0t/tdaot6GDe39bw10y89HJ10Z0RTLEE+6apNUxaUmqve9VldAdJ5L/8vNT5E1OpVUBZjR52DTTJNXYgQAZOqENxQ7Pyi6urqkuLjY3gIAAMBQ0tvba+f6r6CgwM4BSBctYgAAAACQYwRiAAAAAJBjBGIAAAAAkGMEYgAAAACQYwRiAAAAAJBjBGIAAAAAkGMEYgAAAACQYwRiAAAAAJBjBGIAAAAAkGMEYgAAAACQYwRiAAAAAJBjBGIAAAAAkGMEYgAAAACQYye8odj5QdHV1SXFxcX21vHxxBNP2DkAAAB4nXPOOXau/woKCuwcgHSNiEAMAAAAifX29tq5/iMQAzJHaiIAAAAA5BiBGAAAAADkGIEYAAAAAOQYgRgAAAAA5BiBGAAAAADkGIEYAAAAAOQYgRgAAAAA5BiBGAAAAADkGIEYAAAAAOQYgRgAAAAA5BiBGAAAAADkGIEYAAAAAOQYgRgAAAAA5BiBGAAMQ7vC46Uk3GpvDVD3RplVNlcauu1tAAAw6AjEAGCI6WmYKyVlKtDyTtkKupBdJohVn8+cjdJjF3mZzzLJOgDAyEYgBgBDUWiZ7G4/IJ1mqpfZjTUyq+GwXYkhJ7JKrs3a53NYGuaM5/MGgDxHIAYAQ94UWRoOSVt7p72NoSUky8OV0lZXS3onACBtBGIAMAx0tEfsXDKtssSXzhiWXXZN1M6wZ72akqbMuftKsA+PuBTKYPqkeTy1D/dx8zlFr7xONlRFZOXidF5j8LPy9M8zqY4VslJ93G11FWY9LWMAkJ8IxABgqFOBzMLGStlQN8UuiNfT0CQTW9xUxgMqKGiShZ7AxwRNNR2yPLpNsywfZ1f66LS4GtlaVa+2qZNpdmmQLhYyta5UNkTTJ9X+DtYkCLbU89he6WyzZYEU2qX5aFpdvczuK0XRBFo10hFutu+bmupLZWX5eFmyU60vWiDb9HsZEplgt9lWPca5LwAgrxCIAcBQpE7op7otJjVN6qR8cdKgSCusrpPqIntDmTazUu0jIh3mVqusrovI7PrNnm3GSHVdMDDSQViFrJRlsjtF0KeDidWNIRXUeQM1tb91y2RCpEl2+NLz1HaLUuwrr0yRNfWpUxR33bFK2lSQ6wuupuvWNJGt2ynIAgAjCYEYAAxFvmIdB2Rpe0WfqX2+VEEVvEV1d6iArFKqptvbSWxZbIOwvlquOiLSFqqUGZ7AzygqlzmhiOx3oj+rVMYGt8tnJqhKlqJ4WA4dFJk9Mz4wNYHzwY400hoBAPmCQAwAhoFpixK1NrmcPkdTt1XGgrd6dWKfEd0HLeRpRUN/pZWiCAAY8QjEAGC429kkW6VSNiRrySoqlVJpkkbdBympkMxZt9npW9ZHkQ4pDSUOCrtbZEskJBNL7e0RK5aiuEO98zFjZOy4xCmIu7Y3iYwrzes+dBhePv7xjyedAGQHgRgADAOmb1GidEBNB0bSIYeigVGrLPGmJtry91trPNX5dH+wcHz63LQ6W+gjVTBWtECW6vS7cu82an+Ldf+nWl9ftRHLTVGs834OtmUzOCacKcbi7UvnBGwMV4Dj6b/+67/snF+y5QAyRyAGAEORt1iHmhZKffKqgyowWh8WU3nP2b5JqgKpiYXVm2W3b5sK2VJWnnB/0+p01T4djNlKfgnEAjbP/mY1S2eqIh8jjElRtPNRuipiyzIRW5reTDUiG9q9hVRiAZteT/l6HC/BoIsgDMiuE95Q7Pyg6OrqkuLiYnsLAAAAQ0lvb6+dS0ynI/YVhBUUFNg5AOmiRQxwmfF9Eqdj6TGTolevvYOvJuBUrkuwTWAwXa5yAwCGA1rCgMFBIAa4AVL5Kmmzi7x0ELbwYKyUuJPelaz/jDNeUxz9GN7BdG1qUrK0LwAAAOQ3UhMxwumy3zUi9QdkjehgSffV8AxSq1vJyptkTou3/4Yz6K3uD+MblFXRQdtqqRRp7PDcJ/H2uuXMlBvva8wmAEC/XH755XYufx04cEDa2hJdRkxfX6mJ6SA1EcgcLWIY4abImnYVhKUc6DY4IO0YmTErFF/RTFc+O7hM1i8K2QV+pSX+oK2wvFImMGYTAKCfdBCmJwDDEy1igMukD6bTIuZJV3Rbs7zbSfA+SVrQoumK/n0DALLDbRFraGgwf/PN6aefbv4O9FSOFjHg+KBFDEilqFzmhCKycrFnvCXd8tVo541WWVK+SkrrkwVUtgWtrtZTwCM4zhMAAABGEgIxIKUxUr2lWZaLZ0yn7ZWyOxwSGVcqhaa1q0Y6ws0p0xvjx3BqkqqWZTIhmvao+6q56/SUujIjAAAAhjdSEwEAAAAgx2gRAwAAAIAcIxADAAAAgBwjEAMAAACAHCMQAwAAAIAcIxADAAAAgBwjEAMAAACAHCMQAwAAAIAcIxADAAAAgBwjEAMAAACAHCMQAwAAAIAcIxADAAAAgBwjEAMAAACAHCMQAwAAAIAcIxADAAAAgBwjEAMAAACAnBL5/wF7ZFVns3ePTAAAAABJRU5ErkJggg==;imageBorder=default;" vertex="1" parent="-qgodvQOzTYyHsjL0HaB-22">
          <mxGeometry y="110" width="370.59" height="190" as="geometry" />
        </mxCell>
        <mxCell id="-qgodvQOzTYyHsjL0HaB-26" style="edgeStyle=orthogonalEdgeStyle;rounded=0;orthogonalLoop=1;jettySize=auto;html=1;exitX=0;exitY=0.5;exitDx=0;exitDy=0;entryX=1;entryY=0.513;entryDx=0;entryDy=0;entryPerimeter=0;startArrow=classic;startFill=1;strokeWidth=2;" edge="1" parent="1" source="-qgodvQOzTYyHsjL0HaB-6" target="-qgodvQOzTYyHsjL0HaB-22">
          <mxGeometry relative="1" as="geometry" />
        </mxCell>
        <mxCell id="-qgodvQOzTYyHsjL0HaB-27" style="edgeStyle=orthogonalEdgeStyle;rounded=0;orthogonalLoop=1;jettySize=auto;html=1;exitX=0.5;exitY=1;exitDx=0;exitDy=0;entryX=0.998;entryY=0.578;entryDx=0;entryDy=0;entryPerimeter=0;" edge="1" parent="1" source="-qgodvQOzTYyHsjL0HaB-6" target="-qgodvQOzTYyHsjL0HaB-12">
          <mxGeometry relative="1" as="geometry" />
        </mxCell>
        <mxCell id="-qgodvQOzTYyHsjL0HaB-30" style="edgeStyle=orthogonalEdgeStyle;rounded=0;orthogonalLoop=1;jettySize=auto;html=1;exitX=1;exitY=0.5;exitDx=0;exitDy=0;entryX=0;entryY=0.5;entryDx=0;entryDy=0;" edge="1" parent="1" source="-qgodvQOzTYyHsjL0HaB-29" target="-qgodvQOzTYyHsjL0HaB-2">
          <mxGeometry relative="1" as="geometry" />
        </mxCell>
        <mxCell id="-qgodvQOzTYyHsjL0HaB-31" style="edgeStyle=orthogonalEdgeStyle;rounded=0;orthogonalLoop=1;jettySize=auto;html=1;exitX=1;exitY=0.75;exitDx=0;exitDy=0;entryX=0;entryY=0.5;entryDx=0;entryDy=0;" edge="1" parent="1" source="-qgodvQOzTYyHsjL0HaB-29" target="-qgodvQOzTYyHsjL0HaB-3">
          <mxGeometry relative="1" as="geometry" />
        </mxCell>
        <mxCell id="-qgodvQOzTYyHsjL0HaB-29" value="Job Scheduler&lt;div&gt;&lt;br&gt;&lt;/div&gt;&lt;div&gt;(Control-M)&lt;/div&gt;" style="rounded=0;whiteSpace=wrap;html=1;" vertex="1" parent="1">
          <mxGeometry x="140" y="86" width="190" height="90" as="geometry" />
        </mxCell>
        <mxCell id="-qgodvQOzTYyHsjL0HaB-32" value="Clinician Review" style="shape=image;html=1;verticalAlign=top;verticalLabelPosition=bottom;labelBackgroundColor=#ffffff;imageAspect=0;aspect=fixed;image=https://cdn4.iconfinder.com/data/icons/medical-14/512/9-128.png" vertex="1" parent="1">
          <mxGeometry x="-290" y="730" width="128" height="128" as="geometry" />
        </mxCell>
        <mxCell id="-qgodvQOzTYyHsjL0HaB-33" value="Authorized User" style="sketch=0;outlineConnect=0;fontColor=#232F3E;gradientColor=none;fillColor=#232F3D;strokeColor=none;dashed=0;verticalLabelPosition=bottom;verticalAlign=top;align=center;html=1;fontSize=12;fontStyle=0;aspect=fixed;pointerEvents=1;shape=mxgraph.aws4.authenticated_user;" vertex="1" parent="1">
          <mxGeometry x="-270" y="384" width="78" height="78" as="geometry" />
        </mxCell>
      </root>
    </mxGraphModel>
  </diagram>
</mxfile>
